<svg width="23" height="22" viewBox="0 0 23 22" fill="none" xmlns="http://www.w3.org/2000/svg">
<g clip-path="url(#clip0_496_4141)">
<path d="M11.0771 13.75C12.5959 13.75 13.8271 12.5188 13.8271 11C13.8271 9.48122 12.5959 8.25 11.0771 8.25C9.55837 8.25 8.32715 9.48122 8.32715 11C8.32715 12.5188 9.55837 13.75 11.0771 13.75Z" stroke="#464646" stroke-width="1.83333" stroke-linecap="round" stroke-linejoin="round"/>
<path d="M17.8608 13.7496C17.7388 14.0261 17.7024 14.3328 17.7563 14.6301C17.8102 14.9275 17.952 15.2019 18.1633 15.4179L18.2183 15.4729C18.3888 15.6432 18.524 15.8454 18.6163 16.068C18.7085 16.2905 18.756 16.5291 18.756 16.77C18.756 17.0109 18.7085 17.2495 18.6163 17.4721C18.524 17.6946 18.3888 17.8968 18.2183 18.0671C18.048 18.2376 17.8458 18.3728 17.6233 18.465C17.4007 18.5573 17.1622 18.6048 16.9212 18.6048C16.6803 18.6048 16.4417 18.5573 16.2192 18.465C15.9966 18.3728 15.7944 18.2376 15.6241 18.0671L15.5691 18.0121C15.3531 17.8008 15.0787 17.659 14.7813 17.6051C14.484 17.5512 14.1773 17.5876 13.9008 17.7096C13.6297 17.8258 13.3985 18.0187 13.2356 18.2647C13.0727 18.5106 12.9853 18.7988 12.9841 19.0938V19.2496C12.9841 19.7358 12.791 20.2021 12.4472 20.546C12.1034 20.8898 11.637 21.0829 11.1508 21.0829C10.6646 21.0829 10.1983 20.8898 9.85445 20.546C9.51063 20.2021 9.31747 19.7358 9.31747 19.2496V19.1671C9.31038 18.8637 9.21217 18.5694 9.03561 18.3226C8.85905 18.0757 8.61232 17.8877 8.32747 17.7829C8.05099 17.6609 7.7443 17.6245 7.44694 17.6784C7.14957 17.7323 6.87518 17.8741 6.65914 18.0854L6.60414 18.1404C6.43387 18.3109 6.23168 18.4461 6.00911 18.5384C5.78655 18.6306 5.54799 18.6781 5.30706 18.6781C5.06613 18.6781 4.82756 18.6306 4.605 18.5384C4.38244 18.4461 4.18024 18.3109 4.00997 18.1404C3.83952 17.9702 3.70429 17.768 3.61203 17.5454C3.51977 17.3228 3.47228 17.0843 3.47228 16.8433C3.47228 16.6024 3.51977 16.3639 3.61203 16.1413C3.70429 15.9187 3.83952 15.7165 4.00997 15.5463L4.06497 15.4913C4.2763 15.2752 4.41806 15.0008 4.47198 14.7035C4.5259 14.4061 4.4895 14.0994 4.36747 13.8229C4.25127 13.5518 4.05833 13.3206 3.8124 13.1577C3.56647 12.9948 3.27828 12.9074 2.98331 12.9063H2.82747C2.34124 12.9063 1.87493 12.7131 1.53111 12.3693C1.18729 12.0255 0.994141 11.5592 0.994141 11.0729C0.994141 10.5867 1.18729 10.1204 1.53111 9.77657C1.87493 9.43275 2.34124 9.23959 2.82747 9.23959H2.90997C3.21339 9.2325 3.50765 9.13429 3.7545 8.95773C4.00135 8.78117 4.18938 8.53443 4.29414 8.24959C4.41616 7.97311 4.45256 7.66642 4.39865 7.36905C4.34473 7.07169 4.20297 6.7973 3.99164 6.58126L3.93664 6.52626C3.76618 6.35599 3.63096 6.1538 3.5387 5.93123C3.44644 5.70867 3.39895 5.47011 3.39895 5.22918C3.39895 4.98825 3.44644 4.74968 3.5387 4.52712C3.63096 4.30456 3.76618 4.10236 3.93664 3.93209C4.10691 3.76164 4.3091 3.62641 4.53167 3.53415C4.75423 3.44189 4.9928 3.3944 5.23372 3.3944C5.47465 3.3944 5.71322 3.44189 5.93578 3.53415C6.15834 3.62641 6.36054 3.76164 6.53081 3.93209L6.58581 3.98709C6.80185 4.19842 7.07624 4.34018 7.3736 4.3941C7.67096 4.44801 7.97766 4.41162 8.25414 4.28959H8.32747C8.5986 4.17339 8.82982 3.98045 8.99269 3.73452C9.15556 3.48859 9.24296 3.2004 9.24414 2.90543V2.74959C9.24414 2.26336 9.4373 1.79705 9.78111 1.45323C10.1249 1.10941 10.5912 0.91626 11.0775 0.91626C11.5637 0.91626 12.03 1.10941 12.3738 1.45323C12.7177 1.79705 12.9108 2.26336 12.9108 2.74959V2.83209C12.912 3.12706 12.9994 3.41525 13.1623 3.66119C13.3251 3.90712 13.5564 4.10006 13.8275 4.21626C14.104 4.33828 14.4107 4.37468 14.708 4.32076C15.0054 4.26685 15.2798 4.12509 15.4958 3.91376L15.5508 3.85876C15.7211 3.6883 15.9233 3.55308 16.1458 3.46082C16.3684 3.36856 16.607 3.32107 16.8479 3.32107C17.0888 3.32107 17.3274 3.36856 17.5499 3.46082C17.7725 3.55308 17.9747 3.6883 18.145 3.85876C18.3154 4.02903 18.4507 4.23122 18.5429 4.45379C18.6352 4.67635 18.6827 4.91492 18.6827 5.15584C18.6827 5.39677 18.6352 5.63534 18.5429 5.8579C18.4507 6.08046 18.3154 6.28266 18.145 6.45293L18.09 6.50793C17.8786 6.72397 17.7369 6.99836 17.683 7.29572C17.6291 7.59308 17.6655 7.89978 17.7875 8.17626V8.24959C17.9037 8.52072 18.0966 8.75194 18.3425 8.91481C18.5885 9.07768 18.8767 9.16508 19.1716 9.16626H19.3275C19.8137 9.16626 20.28 9.35942 20.6238 9.70323C20.9677 10.047 21.1608 10.5134 21.1608 10.9996C21.1608 11.4858 20.9677 11.9521 20.6238 12.296C20.28 12.6398 19.8137 12.8329 19.3275 12.8329H19.245C18.95 12.8341 18.6618 12.9215 18.4159 13.0844C18.1699 13.2472 17.977 13.4785 17.8608 13.7496V13.7496Z" stroke="#464646" stroke-width="1.83333" stroke-linecap="round" stroke-linejoin="round"/>
</g>
<defs>
<clipPath id="clip0_496_4141">
<rect width="22" height="22" fill="white" transform="translate(0.0771484)"/>
</clipPath>
</defs>
</svg>
