<svg width="134" height="134" viewBox="0 0 134 134" fill="none" xmlns="http://www.w3.org/2000/svg">
<path d="M128.689 0.529541H64.4287C50.6587 0.529541 37.9687 8.17953 31.4887 20.3295L10.1587 60.4695C4.0387 71.9895 0.798706 84.8595 0.798706 97.9995V133.999H105.289C121.129 133.999 133.999 121.129 133.999 105.199V5.83953C133.999 2.95954 131.569 0.529541 128.689 0.529541ZM117.979 75.1395C117.979 78.1095 115.549 80.4495 112.669 80.4495H44.1787C32.1187 80.4495 24.3787 67.5795 30.1387 56.8695L44.2687 30.4995C48.9487 21.8595 57.9487 16.4595 67.7587 16.4595H112.669C115.639 16.4595 117.979 18.8895 117.979 21.7695V75.1395V75.1395Z" fill="#F7510B"/>
<path d="M66.6779 48.6801C67.9702 48.6801 69.0179 46.1013 69.0179 42.9202C69.0179 39.739 67.9702 37.1602 66.6779 37.1602C65.3855 37.1602 64.3379 39.739 64.3379 42.9202C64.3379 46.1013 65.3855 48.6801 66.6779 48.6801Z" fill="#F7510B"/>
<path d="M91.9684 48.6801C93.2608 48.6801 94.3084 46.1013 94.3084 42.9202C94.3084 39.739 93.2608 37.1602 91.9684 37.1602C90.6761 37.1602 89.6284 39.739 89.6284 42.9202C89.6284 46.1013 90.6761 48.6801 91.9684 48.6801Z" fill="#F7510B"/>
<path d="M105.647 71.6299C105.197 72.3499 104.567 72.9799 103.757 73.4299C101.597 74.5999 96.8271 76.5799 92.9571 72.6199C92.9571 72.6199 90.9771 70.9099 88.9971 68.4799C95.3871 66.5899 100.427 62.9899 103.127 58.3999C104.567 59.8399 105.377 60.9199 105.377 60.9199C109.067 64.8799 106.907 69.5599 105.647 71.6299Z" fill="#F7510B"/>
<path d="M105.015 51.2C105.015 53.72 104.295 56.15 103.035 58.31C100.425 62.9 95.2954 66.59 88.9054 68.39C85.9354 69.29 82.6954 69.74 79.2754 69.74C65.0554 69.74 53.5354 61.46 53.5354 51.2C53.5354 50.84 53.8954 50.48 54.3454 50.48C54.7954 50.48 55.1554 50.75 55.1554 51.2C55.1554 60.83 65.9554 68.66 79.2754 68.66C82.4254 68.66 85.3954 68.21 88.1854 67.4C94.5754 65.6 99.5254 61.82 101.955 57.23C102.945 55.34 103.395 53.36 103.395 51.2C103.395 50.84 103.755 50.48 104.205 50.48C104.655 50.57 105.015 50.84 105.015 51.2Z" fill="#F7510B"/>
</svg>
