<svg width="55" height="26" viewBox="0 0 55 26" fill="none" xmlns="http://www.w3.org/2000/svg">
<path d="M25.8901 16.6198V19.4098C25.8901 19.8598 25.5301 20.2198 25.0801 20.2198H15.9001V24.9898C15.9001 25.4398 15.5401 25.7998 15.0901 25.7998H11.7601C11.3101 25.7998 10.9501 25.4398 10.9501 24.9898V20.2198H1.77008C1.32008 20.2198 0.960083 19.8598 0.960083 19.4098V16.6198C0.960083 16.1698 1.32008 15.8098 1.77008 15.8098H25.0801C25.5301 15.8098 25.8901 16.1698 25.8901 16.6198Z" fill="#F7510B"/>
<path d="M2.94201 13.9199H23.912C24.362 13.9199 24.722 13.5599 24.722 13.1099V10.3199C24.722 9.86987 24.362 9.50987 23.912 9.50987H21.032V5.27987H23.642C24.092 5.27987 24.452 4.91987 24.452 4.46987V1.67987C24.452 1.22987 24.092 0.869873 23.642 0.869873H4.83201C3.48201 0.869873 2.40201 1.94987 2.40201 3.29987V4.46987C2.40201 4.91987 2.76201 5.27987 3.21201 5.27987H5.91201V9.50987H3.03201C2.58201 9.50987 2.22201 9.86987 2.22201 10.3199V13.1099C2.13201 13.5599 2.49201 13.9199 2.94201 13.9199ZM10.772 5.27987H16.082V9.50987H10.772V5.27987Z" fill="#F7510B"/>
<path d="M49.1098 16.7108C47.1298 15.9008 44.4298 15.5408 41.0098 15.5408C37.5898 15.5408 34.8898 15.9008 32.9098 16.7108C30.9298 17.5208 29.9398 18.7808 29.9398 20.4908C29.9398 22.2908 30.9298 23.5508 32.9098 24.3608C34.8898 25.1708 37.5898 25.5308 41.0098 25.5308C44.4298 25.5308 47.1298 25.1708 49.1098 24.3608C51.0898 23.5508 52.0798 22.2908 52.0798 20.4908C52.0798 18.6908 51.0898 17.4308 49.1098 16.7108ZM45.3298 21.4808C44.3398 21.6608 42.8098 21.7508 41.0098 21.7508C39.2098 21.7508 37.7698 21.6608 36.6898 21.4808C35.6098 21.3008 35.1598 20.9408 35.1598 20.4908C35.1598 19.6808 37.1398 19.2308 41.0098 19.2308C44.9698 19.2308 46.8598 19.6808 46.8598 20.4908C46.8598 20.9408 46.3198 21.3008 45.3298 21.4808Z" fill="#F7510B"/>
<path d="M54.7797 5.82074V8.97073C54.7797 9.42073 54.4197 9.78074 53.9697 9.78074H51.8997V14.3707C51.8997 14.8207 51.5397 15.1807 51.0897 15.1807H47.8497C47.3997 15.1807 47.0397 14.8207 47.0397 14.3707V1.32074C47.0397 0.870742 47.3997 0.510742 47.8497 0.510742H51.0897C51.5397 0.510742 51.8997 0.870742 51.8997 1.32074V5.01074H53.9697C54.4197 5.01074 54.7797 5.37074 54.7797 5.82074Z" fill="#F7510B"/>
<path d="M30.1213 14.4598C29.6713 14.4598 29.3113 14.0998 29.3113 13.6498V6.44978C29.3113 5.99978 29.6713 5.63978 30.1213 5.63978H39.2113V4.46978H30.0313C29.5813 4.46978 29.2213 4.10978 29.2213 3.65978V1.58978C29.2213 1.13978 29.5813 0.779785 30.0313 0.779785H43.1713C43.6213 0.779785 43.9813 1.13978 43.9813 1.58978V8.51978C43.9813 8.96978 43.6213 9.32978 43.1713 9.32978H34.0813V10.7698H41.1013C41.8213 10.7698 42.4513 10.6798 43.0813 10.5898C44.1613 10.4098 45.0613 10.2298 45.7813 9.95978V13.6498C45.3313 13.8298 44.7013 14.0098 43.9813 14.1898H43.8913C43.7113 14.1898 43.5313 14.2798 43.3513 14.2798C42.2713 14.4598 41.1913 14.5498 40.0213 14.5498H30.1213V14.4598Z" fill="#F7510B"/>
</svg>
