<svg width="32" height="32" viewBox="0 0 32 32" fill="none" xmlns="http://www.w3.org/2000/svg">
<path d="M20.0091 27.9999C19.753 28.0008 19.5 27.9442 19.2686 27.8345C19.0373 27.7247 18.8334 27.5645 18.6721 27.3657L10.3929 17.0809C10.1408 16.7742 10.0029 16.3895 10.0029 15.9924C10.0029 15.5954 10.1408 15.2107 10.3929 14.904L18.9635 4.61923C19.2544 4.26918 19.6725 4.04904 20.1258 4.00725C20.5791 3.96546 21.0304 4.10544 21.3804 4.39639C21.7305 4.68735 21.9506 5.10544 21.9924 5.5587C22.0342 6.01196 21.8942 6.46326 21.6032 6.81331L13.9411 16.001L21.3461 25.1887C21.5557 25.4403 21.6889 25.7467 21.7298 26.0716C21.7707 26.3965 21.7178 26.7264 21.5771 27.0221C21.4364 27.3178 21.214 27.5671 20.9361 27.7404C20.6583 27.9137 20.3366 28.0037 20.0091 27.9999Z" fill="#737373"/>
</svg>
