<svg width="32" height="32" viewBox="0 0 32 32" fill="none" xmlns="http://www.w3.org/2000/svg">
<path d="M11.9938 4.00012C12.2499 3.99925 12.5029 4.05577 12.7343 4.16552C12.9657 4.27527 13.1695 4.43547 13.3308 4.63435L21.6101 14.9191C21.8622 15.2258 22 15.6105 22 16.0076C22 16.4046 21.8622 16.7893 21.6101 17.096L13.0394 27.3808C12.7485 27.7308 12.3304 27.951 11.8771 27.9927C11.4239 28.0345 10.9726 27.8946 10.6225 27.6036C10.2725 27.3127 10.0523 26.8946 10.0105 26.4413C9.96875 25.988 10.1087 25.5367 10.3997 25.1867L18.0618 15.999L10.6568 6.81128C10.4472 6.55967 10.314 6.25329 10.2731 5.92838C10.2322 5.60347 10.2852 5.27363 10.4258 4.9779C10.5665 4.68216 10.7889 4.43291 11.0668 4.25963C11.3447 4.08635 11.6664 3.99629 11.9938 4.00012Z" fill="#737373"/>
</svg>
