<svg width="32" height="32" viewBox="0 0 32 32" fill="none" xmlns="http://www.w3.org/2000/svg">
<path d="M22 27.1L21.9079 27.0309C21.8811 27.008 21.8475 26.9788 21.8069 26.9429C21.6787 26.8295 21.4971 26.664 21.275 26.4591C20.8316 26.05 20.2363 25.492 19.6051 24.8983C19.2626 24.5762 18.9093 24.2433 18.5644 23.9182C17.641 23.0481 16.777 22.2339 16.3379 21.8314L16 21.5217L15.6621 21.8314C15.4997 21.9804 15.2761 22.1848 15.0112 22.4271C14.3001 23.0775 13.2904 24.0009 12.3612 24.8573C11.7234 25.4451 11.1216 26.003 10.6788 26.4207C10.4578 26.6291 10.274 26.8049 10.1444 26.9329C10.0803 26.9962 10.0252 27.0519 9.98452 27.0958C9.97167 27.1096 9.95734 27.1253 9.94323 27.1418C9.61204 27.381 9.32978 27.5 9 27.5C8.17614 27.5 7.5 26.8239 7.5 26V6C7.5 5.54984 7.7328 5.12629 8.08505 4.8H8.15139L8.27735 4.71603C8.48635 4.57669 8.78749 4.5 9 4.5H23C23.2982 4.5 23.5022 4.56903 23.7227 4.71603L23.8486 4.8H23.8625C23.8693 4.80444 23.8762 4.80883 23.8834 4.81312C23.9184 4.83412 23.9582 4.8533 24.003 4.86829C24.2898 5.07313 24.5 5.47079 24.5 6V26C24.5 26.8239 23.8239 27.5 23 27.5C22.6515 27.5 22.3561 27.3671 22 27.1ZM23.7405 4.69785C23.7405 4.69774 23.7418 4.69897 23.7448 4.7019C23.7421 4.69944 23.7406 4.69796 23.7405 4.69785Z" stroke="#F7510B"/>
</svg>
