<svg width="60" height="60" viewBox="0 0 60 60" fill="none" xmlns="http://www.w3.org/2000/svg">
<g filter="url(#filter0_d_152_494)">
<circle cx="26" cy="21" r="12" fill="white"/>
<path d="M30.95 20H30.9C30.5 18.05 28.95 16.5 27 16.1V16C27 15.7 26.9 15.45 26.7 15.3C26.5 15.15 26.25 15 26 15C25.45 15 25 15.45 25 16V16.1C23.05 16.5 21.5 18.05 21.1 20H21C20.75 20 20.5 20.1 20.3 20.3C20.1 20.5 20 20.75 20 21C20 21.55 20.45 22 21 22H21.1C21.5 23.95 23.05 25.5 25 25.9V26C25 26.3 25.1 26.55 25.3 26.7C25.5 26.9 25.75 27 26 27C26.55 27 27 26.55 27 26V25.9C28.95 25.5 30.5 23.95 30.9 22H30.95C31.2 22 31.45 21.9 31.65 21.7C31.85 21.5 31.95 21.25 31.95 21C31.95 20.45 31.5 20 30.95 20ZM29.95 21.5C29.7 23.35 28.25 24.75 26.4 24.95C26.25 24.95 26.15 24.95 26 24.95C25.85 24.95 25.75 24.95 25.6 24.95C23.6 24.75 22 23.05 22 20.95C22 18.85 23.6 17.2 25.6 16.95C25.75 16.95 25.85 16.95 26 16.95C26.15 16.95 26.25 16.95 26.4 16.95C28.25 17.15 29.7 18.6 29.95 20.4C29.95 20.55 30 20.75 30 20.95C30 21.15 30 21.35 29.95 21.5Z" fill="#F7510B"/>
<path d="M26 23C27.1046 23 28 22.1046 28 21C28 19.8954 27.1046 19 26 19C24.8954 19 24 19.8954 24 21C24 22.1046 24.8954 23 26 23Z" fill="#F7510B"/>
</g>
<defs>
<filter id="filter0_d_152_494" x="-4" y="-4" width="68" height="68" filterUnits="userSpaceOnUse" color-interpolation-filters="sRGB">
<feFlood flood-opacity="0" result="BackgroundImageFix"/>
<feColorMatrix in="SourceAlpha" type="matrix" values="0 0 0 0 0 0 0 0 0 0 0 0 0 0 0 0 0 0 127 0" result="hardAlpha"/>
<feMorphology radius="3" operator="dilate" in="SourceAlpha" result="effect1_dropShadow_152_494"/>
<feOffset dx="4" dy="9"/>
<feGaussianBlur stdDeviation="7.5"/>
<feComposite in2="hardAlpha" operator="out"/>
<feColorMatrix type="matrix" values="0 0 0 0 0 0 0 0 0 0 0 0 0 0 0 0 0 0 0.09 0"/>
<feBlend mode="normal" in2="BackgroundImageFix" result="effect1_dropShadow_152_494"/>
<feBlend mode="normal" in="SourceGraphic" in2="effect1_dropShadow_152_494" result="shape"/>
</filter>
</defs>
</svg>
