<svg width="32" height="32" viewBox="0 0 32 32" fill="none" xmlns="http://www.w3.org/2000/svg">
<path d="M17.0419 16.1257L17.0331 16.1286L17.0244 16.1318C16.3376 16.3894 15.5624 16.3894 14.8756 16.1318L14.8676 16.1288L14.8594 16.1261L4.5 12.6407V9C4.5 8.17614 5.17614 7.5 6 7.5H26C26.8239 7.5 27.5 8.17614 27.5 9V12.6396L17.0419 16.1257Z" stroke="#F7510B"/>
<path d="M27.5 15.7938V23.0001C27.5 23.824 26.8239 24.5001 26 24.5001H6C5.17614 24.5001 4.5 23.824 4.5 23.0001V15.7938L15.8419 19.5744L16 19.6271L16.1581 19.5744L27.5 15.7938Z" stroke="#F7510B"/>
</svg>
