<svg width="33" height="32" viewBox="0 0 33 32" fill="none" xmlns="http://www.w3.org/2000/svg">
<path d="M26.068 13.8182C26.068 21.4545 16.2498 28 16.2498 28C16.2498 28 6.43164 21.4545 6.43164 13.8182C6.43164 11.2142 7.46605 8.71695 9.30732 6.87568C11.1486 5.03441 13.6459 4 16.2498 4C18.8538 4 21.3511 5.03441 23.1923 6.87568C25.0336 8.71695 26.068 11.2142 26.068 13.8182Z" stroke="#191919" stroke-width="1.83333" stroke-linecap="round" stroke-linejoin="round"/>
<path d="M16.2498 17.0909C18.0573 17.0909 19.5225 15.6256 19.5225 13.8181C19.5225 12.0107 18.0573 10.5454 16.2498 10.5454C14.4423 10.5454 12.9771 12.0107 12.9771 13.8181C12.9771 15.6256 14.4423 17.0909 16.2498 17.0909Z" stroke="#191919" stroke-width="1.83333" stroke-linecap="round" stroke-linejoin="round"/>
</svg>
