<svg width="32" height="32" viewBox="0 0 32 32" fill="none" xmlns="http://www.w3.org/2000/svg">
<path d="M24.62 15.5V23.8C24.62 24.6433 23.9608 25.3 23.2 25.3H5.92C5.15918 25.3 4.5 24.6433 4.5 23.8V15.5H24.62Z" stroke="#737373" stroke-miterlimit="10"/>
<path d="M25.9472 15.5H4.5V6C4.5 5.19087 5.15902 4.5 6.09496 4.5H23.154C23.8595 4.5 24.4504 4.88321 24.6747 5.55777L24.6746 5.55779L24.6771 5.56482L27.4623 13.5416C27.6772 14.4606 26.9715 15.5 25.9472 15.5Z" stroke="#737373" stroke-miterlimit="10"/>
<path d="M21.6632 26.5242H20.8952C20.6984 26.5242 20.5294 26.4542 20.4127 26.3242H22.1456C22.029 26.4542 21.8599 26.5242 21.6632 26.5242Z" stroke="#737373"/>
<path d="M8.22371 26.5242H7.45571C7.25895 26.5242 7.0899 26.4542 6.97327 26.3242H8.70615C8.58952 26.4542 8.42047 26.5242 8.22371 26.5242Z" stroke="#737373"/>
<path d="M8.87571 22.0039C8.87571 22.6029 8.4024 23.0712 7.83971 23.0712C7.27702 23.0712 6.80371 22.6029 6.80371 22.0039C6.80371 21.4048 7.27702 20.9365 7.83971 20.9365C8.4024 20.9365 8.87571 21.4048 8.87571 22.0039Z" stroke="#737373"/>
<path d="M22.3152 22.0039C22.3152 22.6029 21.8419 23.0712 21.2792 23.0712C20.7165 23.0712 20.2432 22.6029 20.2432 22.0039C20.2432 21.4048 20.7165 20.9365 21.2792 20.9365C21.8419 20.9365 22.3152 21.4048 22.3152 22.0039Z" stroke="#737373"/>
</svg>
