<svg width="32" height="32" viewBox="0 0 32 32" fill="none" xmlns="http://www.w3.org/2000/svg">
<path d="M11.3771 13.7637C12.8451 12.4878 15.6102 10.0848 15.7947 5.59608C18.2327 7.42188 19.7769 9.02201 20.4256 10.8285C21.1624 12.8803 20.8078 15.4131 18.7193 19.2451L18.0746 20.4279H19.4218C20.1402 20.4279 20.8625 20.0989 21.5805 19.602C22.0421 19.2826 22.5376 18.8686 23.0723 18.3634C23.1545 18.7739 23.2 19.1904 23.2 19.6279C23.2 23.806 20.0026 27.2 16.0147 27.2C14.0126 27.2 12.2048 26.4086 10.7556 24.7882C8.05343 21.7519 8.15898 16.8904 11.0257 14.0719C11.1313 13.9773 11.2493 13.8748 11.3771 13.7637Z" stroke="#F7510B" stroke-width="1.6"/>
</svg>
