<svg width="32" height="32" viewBox="0 0 32 32" fill="none" xmlns="http://www.w3.org/2000/svg">
<path d="M24.32 15.8V23.8C24.32 24.4893 23.7837 25 23.2 25H5.92C5.33629 25 4.8 24.4893 4.8 23.8V15.8H24.32Z" stroke="#F7510B" stroke-width="1.6" stroke-miterlimit="10"/>
<path d="M25.9472 15.2H4.8V6C4.8 5.36539 5.31573 4.8 6.09496 4.8H23.154C23.7442 4.8 24.2107 5.11313 24.39 5.65244L24.3899 5.65246L24.3939 5.66372L27.1735 13.6246C27.3391 14.3749 26.7493 15.2 25.9472 15.2Z" stroke="#F7510B" stroke-width="1.6" stroke-miterlimit="10"/>
<mask id="path-3-inside-1_264_4646" fill="white">
<path d="M21.6632 27.0242H20.8952C20.2232 27.0242 19.7432 26.5242 19.7432 25.8242H22.8152C22.8152 26.5242 22.3352 27.0242 21.6632 27.0242Z"/>
</mask>
<path d="M19.7432 25.8242V24.2242H18.1432V25.8242H19.7432ZM22.8152 25.8242L24.4152 25.8242V24.2242H22.8152V25.8242ZM21.6632 25.4242H20.8952V28.6242H21.6632V25.4242ZM20.8952 25.4242C20.9713 25.4242 21.1078 25.4603 21.2214 25.5787C21.3309 25.6928 21.3432 25.8027 21.3432 25.8242H18.1432C18.1432 27.3457 19.2786 28.6242 20.8952 28.6242V25.4242ZM19.7432 27.4242H22.8152V24.2242H19.7432V27.4242ZM21.2152 25.8242C21.2152 25.8027 21.2274 25.6928 21.3369 25.5787C21.4506 25.4603 21.587 25.4242 21.6632 25.4242V28.6242C23.2797 28.6242 24.4152 27.3457 24.4152 25.8242L21.2152 25.8242Z" fill="#F7510B" mask="url(#path-3-inside-1_264_4646)"/>
<mask id="path-5-inside-2_264_4646" fill="white">
<path d="M8.22371 27.0242H7.45571C6.78371 27.0242 6.30371 26.5242 6.30371 25.8242H9.37571C9.37571 26.5242 8.89571 27.0242 8.22371 27.0242Z"/>
</mask>
<path d="M6.30371 25.8242V24.2242H4.70371V25.8242H6.30371ZM9.37571 25.8242H10.9757V24.2242H9.37571V25.8242ZM8.22371 25.4242H7.45571V28.6242H8.22371V25.4242ZM7.45571 25.4242C7.53187 25.4242 7.66831 25.4603 7.78193 25.5787C7.89148 25.6928 7.90371 25.8027 7.90371 25.8242H4.70371C4.70371 27.3457 5.83912 28.6242 7.45571 28.6242V25.4242ZM6.30371 27.4242H9.37571V24.2242H6.30371V27.4242ZM7.77571 25.8242C7.77571 25.8027 7.78794 25.6928 7.89749 25.5787C8.01111 25.4603 8.14755 25.4242 8.22371 25.4242V28.6242C9.8403 28.6242 10.9757 27.3457 10.9757 25.8242H7.77571Z" fill="#F7510B" mask="url(#path-5-inside-2_264_4646)"/>
<path d="M7.83971 23.5712C8.68802 23.5712 9.37571 22.8695 9.37571 22.0039C9.37571 21.1382 8.68802 20.4365 7.83971 20.4365C6.9914 20.4365 6.30371 21.1382 6.30371 22.0039C6.30371 22.8695 6.9914 23.5712 7.83971 23.5712Z" fill="#F7510B"/>
<path d="M21.2792 23.5712C22.1275 23.5712 22.8152 22.8695 22.8152 22.0039C22.8152 21.1382 22.1275 20.4365 21.2792 20.4365C20.4309 20.4365 19.7432 21.1382 19.7432 22.0039C19.7432 22.8695 20.4309 23.5712 21.2792 23.5712Z" fill="#F7510B"/>
</svg>
