<svg width="33" height="33" viewBox="0 0 33 33" fill="none" xmlns="http://www.w3.org/2000/svg">
<path d="M26.068 14.7772C26.068 22.4135 16.2498 28.959 16.2498 28.959C16.2498 28.959 6.43164 22.4135 6.43164 14.7772C6.43164 12.1732 7.46605 9.67593 9.30732 7.83466C11.1486 5.9934 13.6459 4.95898 16.2498 4.95898C18.8538 4.95898 21.3511 5.9934 23.1923 7.83466C25.0336 9.67593 26.068 12.1732 26.068 14.7772Z" stroke="#F7510B" stroke-width="1.83333" stroke-linecap="round" stroke-linejoin="round"/>
<path d="M16.2498 18.0498C18.0573 18.0498 19.5225 16.5846 19.5225 14.7771C19.5225 12.9696 18.0573 11.5044 16.2498 11.5044C14.4423 11.5044 12.9771 12.9696 12.9771 14.7771C12.9771 16.5846 14.4423 18.0498 16.2498 18.0498Z" stroke="#F7510B" stroke-width="1.83333" stroke-linecap="round" stroke-linejoin="round"/>
</svg>
