<svg width="32" height="32" viewBox="0 0 32 32" fill="none" xmlns="http://www.w3.org/2000/svg">
<path d="M11.1789 13.5382C12.7054 12.2102 15.5488 9.73643 15.5039 5.00854C18.2217 6.98626 19.9869 8.71904 20.7079 10.7271C21.4878 12.899 21.0866 15.5286 18.9827 19.3886L18.5798 20.1279H19.4218C20.0505 20.1279 20.7115 19.8385 21.4098 19.3553C21.9605 18.9743 22.5678 18.449 23.2426 17.781C23.4045 18.3772 23.5 18.9793 23.5 19.6279C23.5 23.9555 20.1841 27.5 16.0147 27.5C13.925 27.5 12.0365 26.6705 10.5319 24.9881C7.725 21.8346 7.83086 16.7868 10.8204 13.8531C10.9286 13.756 11.049 13.6513 11.1789 13.5382Z" stroke="#737373"/>
</svg>
