<svg width="32" height="32" viewBox="0 0 32 32" fill="none" xmlns="http://www.w3.org/2000/svg">
<path d="M18.151 25.7002C17.9384 26.7626 17.0504 27.5002 15.8996 27.5002C14.7488 27.5002 13.8608 26.7626 13.6483 25.7002H18.151Z" stroke="#737373"/>
<path d="M6.1 22.4H6.6V21.9V14C6.6 8.76957 10.7827 4.5 16 4.5C21.2173 4.5 25.4 8.76957 25.4 14V21.8V22.3H25.9H26.131C26.2389 22.3347 26.3324 22.3896 26.3964 22.4536C26.463 22.5201 26.5 22.5965 26.5 22.7V23.3C26.5 23.3374 26.4763 23.4166 26.3964 23.4964C26.3166 23.5763 26.2374 23.6 26.2 23.6H5.8C5.76262 23.6 5.68338 23.5763 5.60355 23.4964C5.52373 23.4166 5.5 23.3374 5.5 23.3V22.7C5.5 22.6626 5.52373 22.5834 5.60355 22.5036C5.68338 22.4237 5.76262 22.4 5.8 22.4H6.1Z" stroke="#737373"/>
</svg>
