<svg width="32" height="32" viewBox="0 0 32 32" fill="none" xmlns="http://www.w3.org/2000/svg">
<path d="M26.5122 26.2903L26.5099 26.3005L26.5081 26.3107C26.3615 27.1167 25.6204 27.5001 25.1 27.5001C13.6884 27.5001 4.79676 18.335 4.50001 6.99396C4.5024 6.2031 4.96551 5.63108 5.60847 5.4882L5.60847 5.4882L5.60976 5.48791L9.60976 4.58791L9.62366 4.58478L9.63736 4.58087C9.83184 4.5253 10.1532 4.55847 10.4878 4.71533C10.8214 4.87171 11.0551 5.09807 11.1404 5.29706L11.1404 5.29707L11.1415 5.29947L13.1415 9.89947L13.1468 9.91174L13.1528 9.92371C13.3538 10.3258 13.2926 11.0652 12.7871 11.5096L10.5028 13.198L10.1648 13.4478L10.3528 13.8237C11.9986 17.1153 14.6758 19.8986 18.0819 21.55L18.437 21.7222L18.687 21.4167L20.487 19.2167L20.487 19.2167L20.4904 19.2125C20.7918 18.8357 21.4686 18.4697 22.2079 18.7618L26.7665 20.7438C26.9177 20.8434 27.1194 21.057 27.2653 21.3487C27.4157 21.6495 27.4808 21.9813 27.412 22.2914C27.4119 22.2915 27.4119 22.2916 27.4119 22.2916L26.5122 26.2903Z" stroke="#F7510B"/>
</svg>
