<svg width="32" height="32" viewBox="0 0 32 32" fill="none" xmlns="http://www.w3.org/2000/svg">
<path d="M27.9 22.4001L27 26.4001C26.8 27.5001 25.8 28.0001 25.1 28.0001C13.4 28.0001 4.3 18.6001 4 7.0001C4 6.0001 4.6 5.2001 5.5 5.0001L9.5 4.1001C10.2 3.9001 11.3 4.4001 11.6 5.1001L13.6 9.7001C13.9 10.3001 13.8 11.3001 13.1 11.9001L10.8 13.6001C12.4 16.8001 15 19.5001 18.3 21.1001L20.1 18.9001C20.5 18.4001 21.4 17.9001 22.4 18.3001L27 20.3001C27.5 20.6001 28.1 21.5001 27.9 22.4001Z" fill="#F7510B"/>
</svg>
