<svg width="32" height="33" viewBox="0 0 32 33" fill="none" xmlns="http://www.w3.org/2000/svg">
<g opacity="0.6" filter="url(#filter0_d_130_232)">
<path d="M26.9998 5.30942L23.6399 11.1603L23.1765 11.9713V15.2733C23.1765 16.0263 22.8868 16.7215 22.3655 17.2429V17.3008C22.4813 17.7063 22.4813 18.2277 22.3075 18.8069C21.902 20.0814 20.8593 20.7765 20.0483 21.1241C19.9904 21.1241 19.8745 21.182 19.7586 21.24L18.2525 23.8468L16.3408 27.1488C16.225 27.3805 15.9353 27.3805 15.8195 27.1488L14.2554 24.484C14.1395 24.484 14.0236 24.484 13.9078 24.484C13.6761 24.484 13.4444 24.3682 13.2706 24.1944L12.2858 23.0358L12.112 23.1516L11.9382 23.2675L11.8223 23.3254C11.7644 23.3254 11.7644 23.3834 11.7065 23.3834C11.5327 23.4413 11.3589 23.4992 11.1851 23.4992C11.1272 23.4992 11.0693 23.4992 11.0693 23.4992C10.9534 23.4992 10.7796 23.4413 10.6638 23.3834C10.6058 23.3254 10.49 23.3254 10.432 23.2675C10.432 23.2675 10.3741 23.2096 10.3162 23.1516L6.14527 19.9076C5.56597 19.4442 5.2184 18.8069 5.10254 18.1118C5.10254 17.9959 5.10254 17.8801 5.10254 17.7642V14.7519C5.10254 14.694 5.10254 14.5781 5.16047 14.5202L5.2184 14.3464C5.2184 14.2885 5.27633 14.2305 5.27633 14.1726C5.27633 14.1147 5.33426 14.1147 5.33426 14.0567L7.01421 11.5079L7.13006 11.3341L7.53557 10.7548C7.53557 10.6968 7.5935 10.6389 7.5935 10.581C7.5935 10.581 7.5935 10.5231 7.65143 10.5231C7.70936 10.4651 7.76729 10.4072 7.82522 10.3493C7.82522 10.2913 7.88314 10.2913 7.94107 10.2334C7.999 10.2334 7.999 10.1755 8.05693 10.1755L10.1424 8.95897L10.2582 8.90104C10.3741 8.84311 10.5479 8.78518 10.6638 8.78518C10.7217 8.78518 10.7796 8.78518 10.7796 8.78518C10.8955 8.78518 11.0693 8.78518 11.1851 8.84311C11.301 8.90104 11.3589 8.90104 11.4748 8.95897V8.61139C11.4748 8.37968 11.5906 8.14796 11.8223 8.0321L15.9353 5.71493C16.2829 5.48321 16.7463 5.36735 17.1518 5.36735C17.7891 5.36735 18.4263 5.54114 18.9476 5.94665L20.2221 6.93144L20.3379 7.0473L25.3778 4.09291L25.5516 3.97705L26.9998 5.30942Z" fill="white"/>
</g>
<path d="M24.3923 5.94678L19.9317 8.61152L18.1939 7.27915C17.4408 6.69986 16.456 6.64193 15.645 7.10536L12.1113 9.13289C11.8796 9.24875 11.8216 9.42253 11.8216 9.65425V9.9439C11.6479 9.82804 11.4741 9.77011 11.2423 9.77011C11.1844 9.77011 11.1844 9.77011 11.1265 9.77011C11.0106 9.77011 10.8368 9.82804 10.721 9.88597L10.6631 9.9439L8.86725 10.9866C8.80932 10.9866 8.80932 11.0446 8.75139 11.0446C8.69346 11.1025 8.63553 11.1025 8.63553 11.1604C8.51967 11.1604 8.51967 11.2183 8.46174 11.2183C8.46174 11.2183 8.46174 11.2183 8.40381 11.2763C8.34588 11.3342 8.34588 11.3342 8.34588 11.3921L7.99831 11.9135L7.94038 12.0873L6.49215 14.2886C6.49215 14.2886 6.43422 14.3465 6.43422 14.4045C6.43422 14.4624 6.37629 14.5203 6.37629 14.5782L6.31836 14.752C6.31836 14.81 6.31836 14.9258 6.31836 14.9837V17.5906C6.31836 18.2857 6.66594 18.9809 7.1873 19.4443L10.7789 22.2249C10.7789 22.2249 10.8368 22.2828 10.8948 22.2828C10.9527 22.3408 11.0106 22.3408 11.1265 22.3987C11.1844 22.4566 11.3003 22.4566 11.4161 22.4566C11.4741 22.4566 11.4741 22.4566 11.532 22.4566C11.7058 22.4566 11.8216 22.3987 11.9954 22.3408C12.0534 22.3408 12.0534 22.2828 12.1113 22.2828L12.2271 22.2249L12.5168 22.0511L13.3857 22.9201C13.4437 22.978 13.5016 23.0359 13.6174 23.0938C13.7333 23.1518 13.8492 23.2097 13.965 23.2097C14.7181 23.2676 15.645 22.4566 15.9925 21.356C16.1663 20.8925 16.1663 20.3712 16.0505 20.0236L16.1663 19.9657L16.456 19.7919L17.7884 19.0388L18.6573 19.9077L18.7152 19.9657C18.8311 20.0815 19.0049 20.1395 19.2366 20.1974C19.4683 20.1974 19.758 20.1395 20.0476 19.9657C20.569 19.676 21.0324 19.0388 21.2641 18.3436C21.4379 17.8802 21.4379 17.4168 21.322 17.0113V16.9533C21.7855 16.5478 22.0751 15.9106 22.0751 15.2734V11.4501L25.0295 6.35228L24.3923 5.94678ZM13.154 16.9533L14.1967 15.2734L15.4712 14.5203C15.645 14.4624 15.8188 14.5203 15.8188 14.752V15.563C15.8188 15.6789 15.7608 15.7368 15.7029 15.7948L14.776 16.3161L14.6602 16.374L14.4864 16.4899L13.5016 17.0692L13.2699 17.1851C13.2699 17.1851 13.2699 17.1851 13.2119 17.1851C13.2119 17.1271 13.154 17.0692 13.154 16.9533ZM11.1844 17.6485L7.12937 14.4624L8.40381 12.6086C8.5776 12.319 8.98311 12.2611 9.27275 12.4928L12.4009 14.9258C12.6327 15.0996 12.6906 15.4472 12.5168 15.6789L11.1844 17.6485ZM21.6696 14.0569L19.8738 12.6666L21.6696 11.6238V14.0569Z" fill="#F7510B"/>
<defs>
<filter id="filter0_d_130_232" x="4.10254" y="2.97705" width="27.8975" height="29.3457" filterUnits="userSpaceOnUse" color-interpolation-filters="sRGB">
<feFlood flood-opacity="0" result="BackgroundImageFix"/>
<feColorMatrix in="SourceAlpha" type="matrix" values="0 0 0 0 0 0 0 0 0 0 0 0 0 0 0 0 0 0 127 0" result="hardAlpha"/>
<feOffset dx="2" dy="2"/>
<feGaussianBlur stdDeviation="1.5"/>
<feComposite in2="hardAlpha" operator="out"/>
<feColorMatrix type="matrix" values="0 0 0 0 0 0 0 0 0 0 0 0 0 0 0 0 0 0 0.6 0"/>
<feBlend mode="normal" in2="BackgroundImageFix" result="effect1_dropShadow_130_232"/>
<feBlend mode="normal" in="SourceGraphic" in2="effect1_dropShadow_130_232" result="shape"/>
</filter>
</defs>
</svg>
