<svg width="32" height="32" viewBox="0 0 32 32" fill="none" xmlns="http://www.w3.org/2000/svg">
<path d="M14 4C8.5 4 4 8.5 4 14C4 19.5 8.5 24 14 24C16 24 17.9 23.4 19.5 22.3C20.6 21.6 21.6 20.6 22.3 19.5C23.3 17.9 24 16 24 14C24 8.5 19.6 4 14 4ZM18.4 20.7C17.1 21.5 15.6 22 14 22C9.6 22 6 18.4 6 14C6 9.6 9.6 6 14 6C18.4 6 22 9.6 22 14C22 15.6 21.5 17.1 20.7 18.4C20.1 19.3 19.3 20.1 18.4 20.7Z" fill="#F7510B"/>
<path d="M27.4 27.4C27 27.8 26.5 28 26 28C25.5 28 25 27.8 24.6 27.4L21 23.8C21.4 23.5 21.7 23.3 22 23L23.4 21.6C23.6 21.4 23.7 21.2 23.8 21L27.4 24.6C28.2 25.4 28.2 26.7 27.4 27.4Z" fill="#F7510B"/>
</svg>
