<svg width="32" height="32" viewBox="0 0 32 32" fill="none" xmlns="http://www.w3.org/2000/svg">
<path d="M23.8598 11.2371C24.588 12.5896 25.8839 13.3552 27.2833 13.5577C27.4271 14.3253 27.5 15.1607 27.5 16C27.5 16.8289 27.4291 17.6622 27.3462 18.4479C25.961 18.6584 24.6816 19.4224 23.9598 20.7629C23.251 22.0792 23.1814 23.6824 23.7791 24.9876C22.587 26.0383 21.2519 26.8621 19.7093 27.4033C18.8903 26.2526 17.5497 25.5 16.1 25.5C14.6439 25.5 13.2979 26.2592 12.48 27.4185C10.914 26.9472 9.50835 26.1155 8.38872 24.991C8.91209 23.6328 8.86223 22.1038 8.14024 20.763C7.41196 19.4104 6.11608 18.6448 4.71669 18.4423C4.57287 17.6747 4.5 16.8393 4.5 16C4.5 15.1607 4.57287 14.3253 4.71669 13.5577C6.11608 13.3552 7.41196 12.5896 8.14024 11.2371C8.84885 9.92104 8.91861 8.31828 8.32127 7.01325C9.51487 5.97037 10.9141 5.14556 12.3944 4.60176C13.2137 5.74965 14.5524 6.5 16 6.5C17.456 6.5 18.8018 5.74092 19.6198 4.58175C21.1614 5.04901 22.4965 5.87382 23.6916 7.00555C23.0848 8.37117 23.1409 9.90194 23.8598 11.2371ZM11.5 16C11.5 18.5521 13.5004 20.7 16 20.7C18.4996 20.7 20.5 18.5521 20.5 16C20.5 13.4479 18.4996 11.3 16 11.3C13.5004 11.3 11.5 13.4479 11.5 16Z" stroke="#737373"/>
</svg>
