<svg width="32" height="32" viewBox="0 0 32 32" fill="none" xmlns="http://www.w3.org/2000/svg">
<path d="M27.7 13.1C26.3 13 25 12.3 24.3 11C23.6 9.7 23.6 8.2 24.3 6.9C22.9 5.5 21.3 4.5 19.4 4C18.7 5.2 17.4 6 16 6C14.6 6 13.3 5.2 12.6 4C10.8 4.6 9.1 5.6 7.7 6.9C8.4 8.1 8.4 9.7 7.7 11C7 12.3 5.7 13 4.3 13.1C4.1 14 4 15 4 16C4 17 4.1 18 4.3 18.9C5.7 19 7 19.7 7.7 21C8.4 22.3 8.4 23.8 7.8 25.1C9.1 26.5 10.8 27.5 12.7 28C13.4 26.8 14.7 26 16.1 26C17.5 26 18.8 26.8 19.5 28C21.4 27.4 23 26.4 24.4 25.1C23.7 23.9 23.7 22.3 24.4 21C25.1 19.7 26.4 19 27.8 18.9C27.9 18 28 17 28 16C28 15 27.9 14 27.7 13.1ZM16 20.2C13.8 20.2 12 18.3 12 16C12 13.7 13.8 11.8 16 11.8C18.2 11.8 20 13.7 20 16C20 18.3 18.2 20.2 16 20.2Z" fill="#737373"/>
</svg>
