<svg width="32" height="32" viewBox="0 0 32 32" fill="none" xmlns="http://www.w3.org/2000/svg">
<path d="M24.2 7.2C22.6 5.7 20.6 4.7 18.4 4.2C17.7 4.1 17 4 16.3 4C16.2 4 16.1 4 16 4C15.9 4 15.8 4 15.7 4C15 4 14.3 4.1 13.6 4.2C11.4 4.7 9.4 5.7 7.8 7.2C5.5 9.4 4.1 12.4 4 15.8V16.1C4 19.7 5.7 22.9 8.2 25.1C9.6 26.3 11.2 27.1 13 27.6C13.9 27.8 14.9 28 15.9 28H16C17 28 18 27.9 18.9 27.6C20.7 27.1 22.3 26.3 23.7 25.1C26.2 22.9 27.9 19.7 27.9 16.1V15.9C28 12.5 26.5 9.4 24.2 7.2ZM18 15H14C14.1 11.8 14.8 8.9 16 6.9C17.1 8.9 17.9 11.8 18 15ZM14.2 6.2C12.9 8.5 12.1 11.6 12 15H6.1C6.5 10.6 9.9 7 14.2 6.2ZM6.1 17H12.1C12.3 20.5 13.1 23.6 14.5 25.9C10 25.2 6.5 21.5 6.1 17ZM16 24.8C14.9 22.8 14.2 20.1 14 17H18C17.8 20.1 17.1 22.8 16 24.8ZM17.6 25.9C18.9 23.6 19.8 20.5 20 17H26C25.5 21.5 22 25.2 17.6 25.9ZM20 15C19.9 11.6 19.1 8.5 17.8 6.2C22.1 7 25.5 10.6 25.9 15H20Z" fill="#737373"/>
</svg>
