<svg width="32" height="32" viewBox="0 0 32 32" fill="none" xmlns="http://www.w3.org/2000/svg">
<path d="M23.1452 18.8523C22.8253 19.1848 22.7187 19.6282 22.8253 20.0715L23.8918 26.3893C24.105 27.4977 22.9319 28.2735 21.9721 27.8302L16.5332 24.8376C16.3199 24.7267 16.1066 24.7267 15.8934 24.7267C15.6801 24.7267 15.4668 24.7267 15.2535 24.8376L9.81457 27.8302C8.85476 28.3844 7.78831 27.4977 7.89495 26.3893L8.96141 20.0715C9.06805 19.6282 8.85476 19.1848 8.64147 18.8523L4.37566 13.7538C3.62914 12.9779 4.05572 11.6478 5.12218 11.537H11.201C11.6275 11.4262 11.9475 10.872 12.1608 10.5394L14.8269 4.77587C15.0402 4.33251 15.5734 4 16 4C16.4266 4 16.9598 4.22168 17.1731 4.77587L19.8392 10.5394C20.0525 10.9828 20.3725 11.537 20.799 11.537H26.8778C27.9443 11.6478 28.3709 12.9779 27.6243 13.7538L23.1452 18.8523Z" stroke="#737373" stroke-miterlimit="10"/>
</svg>
