<svg width="32" height="32" viewBox="0 0 32 32" fill="none" xmlns="http://www.w3.org/2000/svg">
<path d="M16.0306 4V24.6962C15.8163 24.6962 15.602 24.6962 15.3876 24.8081L9.9218 27.8286C8.95725 28.388 7.88552 27.493 7.9927 26.3743L9.06442 19.9976C9.17159 19.5501 8.95725 19.1026 8.7429 18.767L4.456 13.8447C3.59862 13.0616 4.02731 11.7191 5.09904 11.6073H11.2079C11.6366 11.4954 11.9581 10.936 12.1724 10.6004L14.8517 4.7831C15.1733 4.22374 15.6019 4 16.0306 4Z" fill="#F7510B"/>
<path d="M23.2636 18.8789C22.9445 19.212 22.8381 19.6562 22.9445 20.1003L24.0083 26.4294C24.221 27.5398 23.0509 28.3171 22.0935 27.8729L16.6685 24.8749C16.4558 24.7639 16.243 24.7639 16.0303 24.7639V4C16.4558 4 16.9876 4.22207 17.2004 4.77726L19.8597 10.5512C20.0724 10.9953 20.3916 11.5505 20.8171 11.5505H26.8803C27.9441 11.6615 28.3695 12.994 27.6249 13.7712L23.2636 18.8789Z" fill="#D9D9D9"/>
</svg>
