<svg width="32" height="32" viewBox="0 0 32 32" fill="none" xmlns="http://www.w3.org/2000/svg">
<path d="M15.9858 4V24.5418C15.7722 24.5418 15.5587 24.5418 15.3451 24.6528L9.89976 27.6508C8.93881 28.206 7.8711 27.3177 7.97787 26.2074L9.04559 19.8783C9.15236 19.4341 8.93881 18.99 8.72527 18.6569L4.4544 13.7712C3.60022 12.994 4.02731 11.6615 5.09503 11.5505H11.181C11.6081 11.4395 11.9284 10.8843 12.142 10.5512L14.8113 4.77726C15.1316 4.22207 15.5587 4 15.9858 4Z" fill="#737373"/>
<path d="M23.2458 18.8789C22.9255 19.212 22.8188 19.6562 22.9255 20.1003L23.9932 26.4294C24.2068 27.5398 23.0323 28.3171 22.0713 27.8729L16.626 24.8749C16.4124 24.7639 16.1989 24.7639 15.9854 24.7639V4C16.4124 4 16.9463 4.22207 17.1598 4.77726L19.8291 10.5512C20.0427 10.9953 20.363 11.5505 20.7901 11.5505H26.8761C27.9438 11.6615 28.3709 12.994 27.6235 13.7712L23.2458 18.8789Z" fill="#D9D9D9"/>
</svg>
