<svg width="117" height="55" viewBox="0 0 117 55" fill="none" xmlns="http://www.w3.org/2000/svg">
<path d="M104.721 35.172C100.379 33.4574 94.5029 32.6221 87.0918 32.6221C79.6806 32.6221 73.8043 33.4574 69.4628 35.172C65.1214 36.8867 62.9287 39.6564 62.9287 43.5253C62.9287 47.3943 65.1214 50.164 69.4628 51.8787C73.8043 53.5933 79.6806 54.4286 87.0918 54.4286C94.5029 54.4286 100.379 53.5933 104.721 51.8787C109.062 50.164 111.255 47.3943 111.255 43.5253C111.255 39.6125 109.062 36.8427 104.721 35.172ZM96.4763 45.6357C94.196 46.0753 91.0824 46.2512 87.0479 46.2512C83.0134 46.2512 79.8999 46.0313 77.6195 45.6357C75.3391 45.196 74.2428 44.4926 74.2428 43.4814C74.2428 41.6349 78.4966 40.7116 87.0479 40.7116C95.5993 40.7116 99.853 41.6349 99.853 43.4814C99.853 44.4926 98.7567 45.196 96.4763 45.6357Z" fill="#F7510B"/>
<path d="M49.3345 10.244H4.91135C3.94658 10.244 3.15723 9.45265 3.15723 8.48543V5.8915C3.15723 2.98982 5.52529 0.615723 8.4196 0.615723H49.3784C50.3431 0.615723 51.1325 1.40709 51.1325 2.37432V8.48543C51.0886 9.45265 50.2993 10.244 49.3345 10.244Z" fill="#F7510B"/>
<path d="M93.6259 8.70525H63.3235C62.3587 8.70525 61.5693 7.91389 61.5693 6.94666V2.37432C61.5693 1.40709 62.3587 0.615723 63.3235 0.615723H91.8718C92.8366 0.615723 93.6259 1.40709 93.6259 2.37432V8.70525Z" fill="#F7510B"/>
<path d="M91.8718 19.3005H61.5693V12.9695C61.5693 12.0023 62.3587 11.2109 63.3235 11.2109H93.6259V17.4979C93.6259 18.5091 92.8366 19.3005 91.8718 19.3005Z" fill="#F7510B"/>
<path d="M97.6169 20.5317V28.4894C96.5644 28.929 95.205 29.2807 93.6263 29.6325C93.5386 29.6325 93.4509 29.6764 93.3632 29.6764C93.3193 29.6764 93.3193 29.6764 93.2754 29.6764C92.8808 29.7644 92.5299 29.8083 92.0914 29.8523C89.8111 30.204 87.443 30.3359 84.9434 30.3359V22.3343H87.443C88.934 22.2464 90.3811 22.1145 91.7844 21.9386C94.1525 21.5869 96.1259 21.1472 97.6169 20.5317Z" fill="#F7510B"/>
<path d="M93.5824 8.70508H83.1016V11.255H93.5824V8.70508Z" fill="#F7510B"/>
<path d="M72.0502 19.3008H61.5693V22.3783H72.0502V19.3008Z" fill="#F7510B"/>
<path d="M49.9044 29.0609H4.34104C3.37627 29.0609 2.58691 28.2695 2.58691 27.3023V21.1912C2.58691 20.224 3.37627 19.4326 4.34104 19.4326H49.9044C50.8692 19.4326 51.6585 20.224 51.6585 21.1912V27.3023C51.6585 28.2695 50.8692 29.0609 49.9044 29.0609Z" fill="#F7510B"/>
<path d="M21.3125 10.2437H10.6562V19.4323H21.3125V10.2437Z" fill="#F7510B"/>
<path d="M43.5459 10.2437H32.8896V19.4323H43.5459V10.2437Z" fill="#F7510B"/>
<path d="M108.975 31.9185H101.87C100.906 31.9185 100.116 31.1271 100.116 30.1599V1.75859C100.116 0.791367 100.906 0 101.87 0H108.975C109.939 0 110.729 0.791367 110.729 1.75859V30.1599C110.729 31.1271 109.939 31.9185 108.975 31.9185Z" fill="#F7510B"/>
<path d="M115.246 20.092H110.729V9.76025H115.246C116.211 9.76025 117 10.5516 117 11.5188V18.3334C117 19.3006 116.211 20.092 115.246 20.092Z" fill="#F7510B"/>
<path d="M30.6971 55H23.549C22.5843 55 21.7949 54.2087 21.7949 53.2414V42.8657H32.4512V53.2414C32.4512 54.2087 31.6619 55 30.6971 55Z" fill="#F7510B"/>
<path d="M52.4921 42.8656H1.75412C0.789355 42.8656 0 42.0742 0 41.107V34.9959C0 34.0287 0.789355 33.2373 1.75412 33.2373H52.4921C53.4569 33.2373 54.2463 34.0287 54.2463 34.9959V41.107C54.2463 42.0742 53.4569 42.8656 52.4921 42.8656Z" fill="#F7510B"/>
<path d="M84.9431 30.3795H63.3674C62.4026 30.3795 61.6133 29.5882 61.6133 28.621V22.334H84.9431V30.3795Z" fill="#F7510B"/>
</svg>
