<svg width="100" height="100" viewBox="0 0 100 100" fill="none" xmlns="http://www.w3.org/2000/svg">
<path d="M84.0499 99.9999H15.95C7.15 99.9999 0 92.8499 0 84.0499V15.95C0 7.14999 7.15 0 15.95 0H83.9999C92.7999 0 99.9499 7.14999 99.9499 15.95V83.9999C99.9999 92.8499 92.8499 99.9999 84.0499 99.9999Z" fill="white"/>
<path d="M38.899 20.9503C37.799 20.5003 36.299 20.3003 34.399 20.3003C32.499 20.3003 30.999 20.5003 29.899 20.9503C28.799 21.4003 28.249 22.1003 28.249 23.0503C28.249 24.0503 28.799 24.7503 29.899 25.2003C30.999 25.6503 32.499 25.8503 34.399 25.8503C36.299 25.8503 37.799 25.6503 38.899 25.2003C39.999 24.7503 40.549 24.0503 40.549 23.0503C40.549 22.0503 39.999 21.3503 38.899 20.9503ZM36.799 23.6003C36.199 23.7003 35.399 23.7503 34.399 23.7503C33.399 23.7503 32.549 23.7003 31.999 23.6003C31.399 23.5003 31.149 23.3003 31.149 23.0503C31.149 22.6003 32.249 22.3503 34.399 22.3503C36.549 22.3503 37.649 22.6003 37.649 23.0503C37.649 23.3003 37.349 23.5003 36.799 23.6003Z" fill="#F7510B"/>
<path d="M25.9994 20.9002V22.4502C25.9994 22.7002 25.7994 22.9002 25.5494 22.9002H20.4494V25.5502C20.4494 25.8002 20.2494 26.0002 19.9994 26.0002H18.1494C17.8994 26.0002 17.6994 25.8002 17.6994 25.5502V22.9002H12.5994C12.3494 22.9002 12.1494 22.7002 12.1494 22.4502V20.9002C12.1494 20.6502 12.3494 20.4502 12.5994 20.4502H25.5494C25.7994 20.4502 25.9994 20.6502 25.9994 20.9002Z" fill="#F7510B"/>
<path d="M24.8994 16.9001H23.2994V14.5501H24.7994C25.0494 14.5501 25.2494 14.3501 25.2494 14.1001V12.5501C25.2494 12.3001 25.0494 12.1001 24.7994 12.1001H14.3494C13.5994 12.1001 12.9994 12.7001 12.9994 13.4501V14.1001C12.9994 14.3501 13.1994 14.5501 13.4494 14.5501H14.9494V16.9001H13.3494C13.0994 16.9001 12.8994 17.1001 12.8994 17.3501V18.9001C12.8994 19.1501 13.0994 19.3501 13.3494 19.3501H24.9994C25.2494 19.3501 25.4494 19.1501 25.4494 18.9001V17.3501C25.3494 17.1501 25.1494 16.9001 24.8994 16.9001ZM20.5494 16.9001H17.5994V14.5501H20.5494V16.9001Z" fill="#F7510B"/>
<path d="M35.5996 17.5504C36.1996 17.4504 36.6996 17.3504 37.0996 17.2004V19.2504C36.8496 19.3504 36.4996 19.4504 36.0996 19.5504C36.0496 19.5504 36.0496 19.5504 36.0496 19.5504C35.9496 19.5504 35.8496 19.6004 35.7496 19.6004C35.1496 19.7004 34.5496 19.7504 33.8996 19.7504H28.3996C28.1496 19.7504 27.9496 19.5504 27.9496 19.3004V17.7004V15.3004C27.9496 15.0504 28.1496 14.8504 28.3996 14.8504H33.3496V14.2004H28.2996C28.0496 14.2004 27.8496 14.0004 27.8496 13.7504V12.6004C27.8496 12.3504 28.0496 12.1504 28.2996 12.1504H35.5996C35.8496 12.1504 36.0496 12.3504 36.0496 12.6004V16.4504C36.0496 16.7004 35.8496 16.9004 35.5996 16.9004H30.5496V17.7004H34.4496C34.8496 17.6504 35.2496 17.6004 35.5996 17.5504Z" fill="#F7510B"/>
<path d="M41.9992 14.9002V16.6502C41.9992 16.9002 41.7992 17.1002 41.5492 17.1002H40.3992V19.6502C40.3992 19.9002 40.1992 20.1002 39.9492 20.1002H38.1492C37.8992 20.1002 37.6992 19.9002 37.6992 19.6502V12.4002C37.6992 12.1502 37.8992 11.9502 38.1492 11.9502H39.9492C40.1992 11.9502 40.3992 12.1502 40.3992 12.4002V14.4502H41.5492C41.7992 14.4502 41.9992 14.6502 41.9992 14.9002Z" fill="#F7510B"/>
<path d="M97.0509 25.8501H61.3509C53.7009 25.8501 46.651 30.1001 43.051 36.8501L31.201 59.1501C27.801 65.55 26.001 72.7 26.001 80V100H84.0509C92.8509 100 100.001 92.85 100.001 84V28.8001C100.001 27.2001 98.7009 25.8501 97.0509 25.8501ZM91.1009 67.3C91.1009 68.95 89.7509 70.25 88.1509 70.25H50.101C43.401 70.25 39.101 63.1 42.301 57.1501L50.151 42.5001C52.751 37.7001 57.7509 34.7001 63.2009 34.7001H88.1509C89.8009 34.7001 91.1009 36.0501 91.1009 37.6501V67.3Z" fill="url(#paint0_linear_264_3717)"/>
<path d="M62.5998 52.6002C63.3178 52.6002 63.8998 51.1675 63.8998 49.4002C63.8998 47.6329 63.3178 46.2002 62.5998 46.2002C61.8818 46.2002 61.2998 47.6329 61.2998 49.4002C61.2998 51.1675 61.8818 52.6002 62.5998 52.6002Z" fill="#F7510B"/>
<path d="M76.6506 52.6002C77.3686 52.6002 77.9506 51.1675 77.9506 49.4002C77.9506 47.6329 77.3686 46.2002 76.6506 46.2002C75.9326 46.2002 75.3506 47.6329 75.3506 49.4002C75.3506 51.1675 75.9326 52.6002 76.6506 52.6002Z" fill="#F7510B"/>
<path d="M84.25 65.3505C84 65.7505 83.65 66.1005 83.2 66.3505C82 67.0005 79.35 68.1005 77.2 65.9005C77.2 65.9005 76.1 64.9505 75 63.6005C78.55 62.5505 81.35 60.5505 82.85 58.0005C83.65 58.8005 84.1 59.4005 84.1 59.4005C86.2 61.6005 84.95 64.2005 84.25 65.3505Z" fill="#F7510B"/>
<path d="M83.9008 54.0001C83.9008 55.4001 83.5007 56.7501 82.8007 57.9501C81.3507 60.5001 78.5008 62.5501 74.9508 63.5501C73.3008 64.0501 71.5008 64.3001 69.6008 64.3001C61.7008 64.3001 55.3008 59.7001 55.3008 54.0001C55.3008 53.8001 55.5008 53.6001 55.7508 53.6001C56.0008 53.6001 56.2008 53.7501 56.2008 54.0001C56.2008 59.3501 62.2008 63.7001 69.6008 63.7001C71.3508 63.7001 73.0008 63.4501 74.5508 63.0001C78.1008 62.0001 80.8508 59.9001 82.2008 57.3501C82.7508 56.3001 83.0007 55.2001 83.0007 54.0001C83.0007 53.8001 83.2008 53.6001 83.4508 53.6001C83.7008 53.6501 83.9008 53.8001 83.9008 54.0001Z" fill="#F7510B"/>
<defs>
<linearGradient id="paint0_linear_264_3717" x1="63.0028" y1="100" x2="63.0028" y2="25.8551" gradientUnits="userSpaceOnUse">
<stop stop-color="#F25835"/>
<stop offset="1" stop-color="#F98D2A"/>
</linearGradient>
</defs>
</svg>
