<svg width="101" height="100" viewBox="0 0 101 100" fill="none" xmlns="http://www.w3.org/2000/svg">
<path d="M99.9502 15.992V84.0081C99.9502 92.8037 92.8037 99.9502 83.9581 99.9502H15.9421C7.14644 99.9502 0 92.8037 0 84.0081V15.992C0 7.19641 7.14644 0 15.9421 0H83.9581C92.8037 0.0499751 99.9502 7.19641 99.9502 15.992Z" fill="white"/>
<path d="M68.2675 31.7344C66.5683 31.0847 64.2195 30.7349 61.271 30.7349C58.3225 30.7349 56.0236 31.0847 54.2745 31.7344C52.5253 32.384 51.6758 33.4835 51.6758 35.0327C51.6758 36.582 52.5253 37.6814 54.2745 38.3311C55.9736 38.9808 58.3225 39.3306 61.271 39.3306C64.2195 39.3306 66.5184 38.9808 68.2675 38.3311C69.9667 37.6814 70.8662 36.582 70.8662 35.0327C70.8162 33.4835 69.9667 32.384 68.2675 31.7344ZM64.9692 35.8823C64.0696 36.0322 62.8202 36.1322 61.221 36.1322C59.6218 36.1322 58.3724 36.0322 57.5229 35.8823C56.6233 35.7324 56.1735 35.4325 56.1735 35.0327C56.1735 34.3331 57.8727 33.9333 61.221 33.9333C64.6193 33.9333 66.2685 34.2831 66.2685 35.0327C66.3185 35.4325 65.8687 35.6824 64.9692 35.8823Z" fill="#F7510B"/>
<path d="M48.2774 31.6845V34.0833C48.2774 34.4831 47.9775 34.783 47.5777 34.783H39.6817V38.8809C39.6817 39.2807 39.3818 39.5806 38.982 39.5806H36.1334C35.7336 39.5806 35.4338 39.2807 35.4338 38.8809V34.783H27.4877C27.0879 34.783 26.7881 34.4831 26.7881 34.0833V31.6845C26.7881 31.2847 27.0879 30.9849 27.4877 30.9849H47.5277C47.9775 30.9849 48.2774 31.2847 48.2774 31.6845Z" fill="#F7510B"/>
<path d="M46.5784 25.5376H44.0796V21.8894H46.3785C46.7783 21.8894 47.0781 21.5896 47.0781 21.1898V18.791C47.0781 18.3912 46.7783 18.0913 46.3785 18.0913H30.1866C29.0371 18.0913 28.0876 19.0408 28.0876 20.1903V21.2397C28.0876 21.6395 28.3874 21.9394 28.7872 21.9394H31.0861V25.5876H28.5873C28.1875 25.5876 27.8877 25.8874 27.8877 26.2872V28.686C27.8877 29.0858 28.1875 29.3857 28.5873 29.3857H46.6284C47.0282 29.3857 47.328 29.0858 47.328 28.686V26.2872C47.278 25.8374 46.9782 25.5376 46.5784 25.5376ZM39.8317 25.5376H35.284V21.8894H39.8317V25.5376Z" fill="#F7510B"/>
<path d="M63.1198 26.5373C64.0693 26.3873 64.819 26.2374 65.4187 25.9875V29.136C64.9689 29.3359 64.4691 29.4358 63.8195 29.5858C63.7695 29.5858 63.7695 29.5858 63.7195 29.5858C63.7195 29.5858 63.7195 29.5858 63.6696 29.5858C63.5196 29.5858 63.3697 29.6357 63.2198 29.6357C62.3202 29.7857 61.3707 29.8356 60.3712 29.8356H51.8754C51.4756 29.8356 51.1758 29.5358 51.1758 29.136V26.6372V22.9391C51.1758 22.5393 51.4756 22.2394 51.8754 22.2394H59.7215V21.2399H51.8754C51.4756 21.2399 51.1758 20.9401 51.1758 20.5403V18.7412C51.1758 18.3414 51.4756 18.0415 51.8754 18.0415H63.1698C63.5696 18.0415 63.8694 18.3414 63.8694 18.7412V24.7382C63.8694 25.138 63.5696 25.4378 63.1698 25.4378H55.3237V26.6372H61.4207C62.0204 26.6372 62.5701 26.5872 63.1198 26.5373Z" fill="#F7510B"/>
<path d="M73.1146 22.389V25.0877C73.1146 25.4875 72.8148 25.7873 72.415 25.7873H70.6159V29.7854C70.6159 30.1852 70.316 30.485 69.9162 30.485H67.1176C66.7178 30.485 66.418 30.1852 66.418 29.7854V18.541C66.418 18.1412 66.7178 17.8413 67.1176 17.8413H69.9162C70.316 17.8413 70.6159 18.1412 70.6159 18.541V21.6894H72.415C72.8148 21.7394 73.1146 22.0392 73.1146 22.389Z" fill="#F7510B"/>
<path d="M71.1144 58.5205C68.2658 58.5205 66.0169 60.6694 66.0169 63.2681V64.2676C66.0169 63.3681 65.2673 62.6185 64.4177 62.6185H44.8775C40.6796 62.6185 36.8315 64.9173 34.8825 68.6654L28.3857 80.8594C26.5366 84.3576 25.5371 88.3057 25.5371 92.2537V99.9998H84.0579C92.9035 99.9998 100.05 92.8534 100.05 84.0578V58.5705H71.1144V58.5205ZM61.1194 85.3072C61.1194 86.2067 60.3698 86.9064 59.4702 86.9064H38.6306C34.9324 86.9064 32.6336 82.9583 34.3327 79.7599L38.6306 71.7639C40.0299 69.1152 42.7785 67.516 45.777 67.516H59.4202C60.3198 67.516 61.0694 68.2656 61.0694 69.1652V85.3072H61.1194Z" fill="url(#paint0_linear_264_3683)"/>
<path d="M45.478 77.2614C45.8644 77.2614 46.1776 76.4783 46.1776 75.5123C46.1776 74.5463 45.8644 73.7632 45.478 73.7632C45.0916 73.7632 44.7783 74.5463 44.7783 75.5123C44.7783 76.4783 45.0916 77.2614 45.478 77.2614Z" fill="url(#paint1_linear_264_3683)"/>
<path d="M53.1743 77.2614C53.5607 77.2614 53.8739 76.4783 53.8739 75.5123C53.8739 74.5463 53.5607 73.7632 53.1743 73.7632C52.7879 73.7632 52.4746 74.5463 52.4746 75.5123C52.4746 76.4783 52.7879 77.2614 53.1743 77.2614Z" fill="url(#paint2_linear_264_3683)"/>
<path d="M57.3719 84.2579C57.222 84.4578 57.022 84.6577 56.7722 84.8077C56.1225 85.1575 54.6732 85.7572 53.4738 84.5578C53.4738 84.5578 52.8741 84.058 52.2744 83.3084C54.2234 82.7587 55.7727 81.6093 56.5723 80.21C57.0221 80.6597 57.2719 80.9596 57.2719 80.9596C58.4213 82.209 57.7217 83.6083 57.3719 84.2579Z" fill="url(#paint3_linear_264_3683)"/>
<path d="M57.1725 78.0609C57.1725 78.8105 56.9726 79.5602 56.5728 80.2098C55.7732 81.6091 54.2239 82.7086 52.2749 83.3083C51.3754 83.5582 50.3759 83.7081 49.3264 83.7081C45.0285 83.7081 41.5303 81.1594 41.5303 78.0609C41.5303 77.961 41.6302 77.861 41.7801 77.861C41.9301 77.861 42.03 77.961 42.03 78.0609C42.03 81.0094 45.3284 83.3583 49.3764 83.3583C50.3259 83.3583 51.2254 83.2083 52.075 82.9585C54.024 82.4087 55.5233 81.2593 56.2729 79.86C56.5728 79.3103 56.7227 78.6606 56.7227 78.0109C56.7227 77.911 56.8227 77.811 56.9726 77.811C57.0725 77.811 57.1725 77.911 57.1725 78.0609Z" fill="url(#paint4_linear_264_3683)"/>
<defs>
<linearGradient id="paint0_linear_264_3683" x1="25.4641" y1="79.2546" x2="99.9469" y2="79.2546" gradientUnits="userSpaceOnUse">
<stop stop-color="#F25835"/>
<stop offset="1" stop-color="#F98D2A"/>
</linearGradient>
<linearGradient id="paint1_linear_264_3683" x1="44.7973" y1="75.5108" x2="46.1973" y2="75.5108" gradientUnits="userSpaceOnUse">
<stop stop-color="#F25835"/>
<stop offset="1" stop-color="#F98D2A"/>
</linearGradient>
<linearGradient id="paint2_linear_264_3683" x1="52.4974" y1="75.5108" x2="53.8974" y2="75.5108" gradientUnits="userSpaceOnUse">
<stop stop-color="#F25835"/>
<stop offset="1" stop-color="#F98D2A"/>
</linearGradient>
<linearGradient id="paint3_linear_264_3683" x1="52.2846" y1="82.7455" x2="57.9014" y2="82.7455" gradientUnits="userSpaceOnUse">
<stop stop-color="#F25835"/>
<stop offset="1" stop-color="#F98D2A"/>
</linearGradient>
<linearGradient id="paint4_linear_264_3683" x1="41.5293" y1="80.7665" x2="57.1671" y2="80.7665" gradientUnits="userSpaceOnUse">
<stop stop-color="#F25835"/>
<stop offset="1" stop-color="#F98D2A"/>
</linearGradient>
</defs>
</svg>
