<svg width="100" height="100" viewBox="0 0 100 100" fill="none" xmlns="http://www.w3.org/2000/svg">
<path d="M84.0499 99.9999H15.95C7.14999 99.9999 0 92.8499 0 84.0499V15.95C0 7.14999 7.14999 0 15.95 0H83.9999C92.8499 0 99.9999 7.14999 99.9999 15.95V83.9999C99.9999 92.8499 92.8499 99.9999 84.0499 99.9999Z" fill="white"/>
<path d="M97.049 25.8496H61.349C53.699 25.8496 46.649 30.0996 43.049 36.8496L31.199 59.1496C27.799 65.5496 25.999 72.6996 25.999 79.9996V99.9995H84.049C92.849 99.9995 99.999 92.8495 99.999 83.9996V28.7996C99.999 27.1996 98.649 25.8496 97.049 25.8496ZM91.099 67.2996C91.099 68.9496 89.749 70.2496 88.149 70.2496H50.099C43.399 70.2496 39.099 63.0996 42.299 57.1496L50.149 42.4996C52.749 37.6996 57.749 34.6996 63.199 34.6996H88.149C89.799 34.6996 91.099 36.0496 91.099 37.6496V67.2996Z" fill="#F7510B"/>
<path d="M62.5988 52.6002C63.3168 52.6002 63.8988 51.1675 63.8988 49.4002C63.8988 47.6329 63.3168 46.2002 62.5988 46.2002C61.8809 46.2002 61.2988 47.6329 61.2988 49.4002C61.2988 51.1675 61.8809 52.6002 62.5988 52.6002Z" fill="#F7510B"/>
<path d="M76.6486 52.6002C77.3666 52.6002 77.9486 51.1675 77.9486 49.4002C77.9486 47.6329 77.3666 46.2002 76.6486 46.2002C75.9307 46.2002 75.3486 47.6329 75.3486 49.4002C75.3486 51.1675 75.9307 52.6002 76.6486 52.6002Z" fill="#F7510B"/>
<path d="M84.248 65.35C83.998 65.75 83.648 66.1 83.198 66.35C81.998 67 79.348 68.1 77.198 65.9C77.198 65.9 76.098 64.95 74.998 63.6C78.548 62.55 81.348 60.55 82.848 58C83.648 58.8 84.098 59.4 84.098 59.4C86.148 61.6 84.948 64.2 84.248 65.35Z" fill="#F7510B"/>
<path d="M83.8969 53.9996C83.8969 55.3996 83.4969 56.7496 82.7969 57.9496C81.3469 60.4996 78.4969 62.5496 74.9469 63.5496C73.2969 64.0496 71.4969 64.2996 69.5969 64.2996C61.6969 64.2996 55.2969 59.6996 55.2969 53.9996C55.2969 53.7996 55.4969 53.5996 55.7469 53.5996C55.9969 53.5996 56.1969 53.7496 56.1969 53.9996C56.1969 59.3496 62.1969 63.6996 69.5969 63.6996C71.3469 63.6996 72.9969 63.4496 74.5469 62.9996C78.0969 61.9996 80.8468 59.8996 82.1968 57.3496C82.7468 56.2996 82.9969 55.1996 82.9969 53.9996C82.9969 53.7996 83.1968 53.5996 83.4468 53.5996C83.6968 53.6496 83.8969 53.7996 83.8969 53.9996Z" fill="#F7510B"/>
<path d="M26.0502 20.8997V22.4497C26.0502 22.6997 25.8502 22.8997 25.6002 22.8997H20.5002V25.5497C20.5002 25.7997 20.3002 25.9997 20.0502 25.9997H18.2002C17.9502 25.9997 17.7502 25.7997 17.7502 25.5497V22.8997H12.6502C12.4002 22.8997 12.2002 22.6997 12.2002 22.4497V20.8997C12.2002 20.6497 12.4002 20.4497 12.6502 20.4497H25.6002C25.8502 20.4497 26.0502 20.6497 26.0502 20.8997Z" fill="#F7510B"/>
<path d="M13.3013 19.3999H24.9513C25.2013 19.3999 25.4013 19.1999 25.4013 18.9499V17.3999C25.4013 17.1499 25.2013 16.9499 24.9513 16.9499H23.3513V14.5999H24.8013C25.0513 14.5999 25.2513 14.3999 25.2513 14.1499V12.5999C25.2513 12.3499 25.0513 12.1499 24.8013 12.1499H14.3513C13.6013 12.1499 13.0013 12.7499 13.0013 13.4999V14.1499C13.0013 14.3999 13.2013 14.5999 13.4513 14.5999H14.9513V16.9499H13.3513C13.1013 16.9499 12.9013 17.1499 12.9013 17.3999V18.9499C12.8513 19.1999 13.0513 19.3999 13.3013 19.3999ZM17.6513 14.5999H20.6013V16.9499H17.6513V14.5999Z" fill="#F7510B"/>
<path d="M38.9498 20.9503C37.8498 20.5003 36.3498 20.3003 34.4498 20.3003C32.5498 20.3003 31.0498 20.5003 29.9498 20.9503C28.8498 21.4003 28.2998 22.1003 28.2998 23.0503C28.2998 24.0503 28.8498 24.7503 29.9498 25.2003C31.0498 25.6503 32.5498 25.8503 34.4498 25.8503C36.3498 25.8503 37.8498 25.6503 38.9498 25.2003C40.0498 24.7503 40.5998 24.0503 40.5998 23.0503C40.5998 22.0503 40.0498 21.3503 38.9498 20.9503ZM36.8498 23.6003C36.2998 23.7003 35.4498 23.7503 34.4498 23.7503C33.4498 23.7503 32.6498 23.7003 32.0498 23.6003C31.4498 23.5003 31.1998 23.3003 31.1998 23.0503C31.1998 22.6003 32.2998 22.3503 34.4498 22.3503C36.6498 22.3503 37.6998 22.6003 37.6998 23.0503C37.6998 23.3003 37.3998 23.5003 36.8498 23.6003Z" fill="#F7510B"/>
<path d="M42.0998 14.9002V16.6502C42.0998 16.9002 41.8998 17.1002 41.6498 17.1002H40.4998V19.6502C40.4998 19.9002 40.2998 20.1002 40.0498 20.1002H38.2498C37.9998 20.1002 37.7998 19.9002 37.7998 19.6502V12.4002C37.7998 12.1502 37.9998 11.9502 38.2498 11.9502H40.0498C40.2998 11.9502 40.4998 12.1502 40.4998 12.4002V14.4502H41.6498C41.8998 14.4502 42.0998 14.6502 42.0998 14.9002Z" fill="#F7510B"/>
<path d="M28.4004 19.6996C28.1504 19.6996 27.9504 19.4996 27.9504 19.2496V15.2496C27.9504 14.9996 28.1504 14.7996 28.4004 14.7996H33.4504V14.1496H28.3504C28.1004 14.1496 27.9004 13.9496 27.9004 13.6996V12.5496C27.9004 12.2996 28.1004 12.0996 28.3504 12.0996H35.6504C35.9004 12.0996 36.1004 12.2996 36.1004 12.5496V16.3996C36.1004 16.6496 35.9004 16.8496 35.6504 16.8496H30.6004V17.6496H34.5004C34.9004 17.6496 35.2504 17.5996 35.6004 17.5496C36.2004 17.4496 36.7004 17.3496 37.1004 17.1996V19.2496C36.8504 19.3496 36.5004 19.4496 36.1004 19.5496H36.0504C35.9504 19.5496 35.8504 19.5996 35.7504 19.5996C35.1504 19.6996 34.5504 19.7496 33.9004 19.7496H28.4004V19.6996Z" fill="#F7510B"/>
</svg>
