<svg width="100" height="100" viewBox="0 0 100 100" fill="none" xmlns="http://www.w3.org/2000/svg">
<path d="M100 15.95V84.0001C100 92.5501 93.2501 99.5501 84.8001 99.9501C84.5501 99.9501 84.2501 99.9501 84.0001 99.9501H15.9C15.65 99.9501 15.4 99.9501 15.15 99.9501C6.70001 99.5501 0 92.5501 0 84.0001V15.95C0 7.4 6.70001 0.45 15.15 0C15.4 0 15.65 0 15.9 0H83.9501C84.2501 0 84.5001 0 84.7501 0C93.2501 0.4 100 7.4 100 15.95Z" fill="white"/>
<path d="M48.2508 31.5501V33.9501C48.2508 34.3501 47.9508 34.6501 47.5508 34.6501H39.6508V38.7501C39.6508 39.1501 39.3508 39.4501 38.9508 39.4501H36.1008C35.7008 39.4501 35.4008 39.1501 35.4008 38.7501V34.6501H27.5008C27.1008 34.6501 26.8008 34.3501 26.8008 33.9501V31.5501C26.8008 31.1501 27.1008 30.8501 27.5008 30.8501H47.5508C47.9508 30.8501 48.2508 31.1501 48.2508 31.5501Z" fill="#F7510B"/>
<path d="M46.5508 25.4007H44.0508V21.7507H46.3508C46.7508 21.7507 47.0508 21.4507 47.0508 21.0507V18.6507C47.0508 18.2507 46.7508 17.9507 46.3508 17.9507H30.1008C28.9508 17.9507 28.0008 18.9007 28.0008 20.0507V21.0507C28.0008 21.4507 28.3008 21.7507 28.7008 21.7507H31.0008V25.4007H28.5008C28.1008 25.4007 27.8008 25.7007 27.8008 26.1007V28.5007C27.8008 28.9007 28.1008 29.2007 28.5008 29.2007H46.5508C46.9508 29.2007 47.2508 28.9007 47.2508 28.5007V26.1007C47.2508 25.7007 46.9508 25.4007 46.5508 25.4007ZM35.2508 25.4007V21.7507H39.8008V25.4007H35.2508Z" fill="#F7510B"/>
<path d="M68.2504 31.6006C66.5504 30.9506 64.2004 30.6006 61.2504 30.6006C58.3004 30.6006 56.0004 30.9506 54.2504 31.6006C52.5504 32.2506 51.6504 33.3506 51.6504 34.9006C51.6504 36.4506 52.5004 37.5506 54.2504 38.2006C56.0004 38.8506 58.3004 39.2006 61.2504 39.2006C64.2004 39.2006 66.5004 38.8506 68.2504 38.2006C70.0004 37.5506 70.8504 36.4506 70.8504 34.9006C70.8004 33.4006 69.9504 32.3006 68.2504 31.6006ZM65.0004 35.7506C64.1004 35.9006 62.8504 36.0006 61.2504 36.0006C59.6504 36.0006 58.4004 35.9006 57.5004 35.7506C56.6004 35.6006 56.1504 35.3006 56.1504 34.9006C56.1504 34.2006 57.8504 33.8006 61.2004 33.8006C64.6004 33.8006 66.2504 34.1506 66.2504 34.9006C66.3004 35.3006 65.8504 35.6006 65.0004 35.7506Z" fill="#F7510B"/>
<path d="M73.1014 22.3003V25.0003C73.1014 25.4003 72.8014 25.7003 72.4014 25.7003H70.6014V29.7003C70.6014 30.1003 70.3014 30.4003 69.9014 30.4003H67.1014C66.7014 30.4003 66.4014 30.1003 66.4014 29.7003V18.5003C66.4014 18.1003 66.7014 17.8003 67.1014 17.8003H69.9014C70.3014 17.8003 70.6014 18.1003 70.6014 18.5003V21.6503H72.4014C72.8014 21.6003 73.1014 21.9003 73.1014 22.3003Z" fill="#F7510B"/>
<path d="M51.8504 29.7507C51.4504 29.7507 51.1504 29.4507 51.1504 29.0507V26.5507V22.8507C51.1504 22.4507 51.4504 22.1507 51.8504 22.1507H59.7004V21.1507H51.8504C51.4504 21.1507 51.1504 20.8507 51.1504 20.4507V18.6507C51.1504 18.2507 51.4504 17.9507 51.8504 17.9507H63.1504C63.5504 17.9507 63.8504 18.2507 63.8504 18.6507V24.6507C63.8504 25.0507 63.5504 25.3507 63.1504 25.3507H55.3004V26.5507H61.4004C62.0004 26.5007 62.5504 26.4507 63.1004 26.4007C64.0504 26.2507 64.8004 26.1007 65.4004 25.8507V29.0007C65.0004 29.2007 64.4504 29.3007 63.8004 29.4507C63.7504 29.4507 63.7504 29.4507 63.7004 29.4507C63.7004 29.4507 63.7004 29.4507 63.6504 29.4507C63.5004 29.4507 63.3504 29.5007 63.2004 29.5507C62.3004 29.7007 61.3504 29.7507 60.3504 29.7507H51.8504Z" fill="#F7510B"/>
<path d="M71.1012 58.5C68.2512 58.5 66.0012 60.65 66.0012 63.25V64.25C66.0012 63.35 65.2512 62.6 64.4012 62.6H44.8012C40.6012 62.6 36.7512 64.9 34.8012 68.65L28.3012 80.85C26.4512 84.35 25.4512 88.3 25.4512 92.25V100H84.0012C84.3012 100 84.5512 100 84.8012 100C93.2512 99.6 100.001 92.6 100.001 84.05V58.55H71.1012V58.5ZM61.1012 85.3C61.1012 86.2 60.4012 86.9 59.5012 86.9H38.6512C34.9512 86.9 32.6012 82.95 34.3512 79.75L38.6512 71.75C40.0512 69.1 42.8012 67.5 45.8012 67.5H59.4512C60.3512 67.5 61.0512 68.25 61.0512 69.15V85.3H61.1012Z" fill="#F7510B"/>
<path d="M45.452 77.25C45.8386 77.25 46.152 76.4665 46.152 75.5C46.152 74.5335 45.8386 73.75 45.452 73.75C45.0654 73.75 44.752 74.5335 44.752 75.5C44.752 76.4665 45.0654 77.25 45.452 77.25Z" fill="#F7510B"/>
<path d="M53.201 77.25C53.5876 77.25 53.901 76.4665 53.901 75.5C53.901 74.5335 53.5876 73.75 53.201 73.75C52.8144 73.75 52.501 74.5335 52.501 75.5C52.501 76.4665 52.8144 77.25 53.201 77.25Z" fill="#F7510B"/>
<path d="M57.351 84.2497C57.201 84.4497 57.001 84.6497 56.751 84.7997C56.101 85.1497 54.651 85.7497 53.451 84.5497C53.451 84.5497 52.851 84.0497 52.251 83.2997C54.201 82.7497 55.751 81.5997 56.551 80.1997C57.001 80.6497 57.251 80.9497 57.251 80.9497C58.401 82.1997 57.751 83.5997 57.351 84.2497Z" fill="#F7510B"/>
<path d="M57.151 78.0498C57.151 78.7998 56.951 79.5498 56.551 80.1998C55.751 81.5998 54.201 82.6998 52.251 83.2998C51.351 83.5498 50.351 83.6998 49.301 83.6998C45.001 83.6998 41.501 81.1498 41.501 78.0498C41.501 77.9498 41.601 77.8498 41.751 77.8498C41.901 77.8498 42.001 77.9498 42.001 78.0498C42.001 80.9998 45.301 83.3498 49.351 83.3498C50.301 83.3498 51.201 83.1998 52.051 82.9498C54.001 82.3998 55.501 81.2498 56.251 79.8498C56.551 79.2998 56.701 78.6498 56.701 77.9998C56.701 77.8998 56.801 77.7998 56.951 77.7998C57.051 77.7998 57.151 77.8998 57.151 78.0498Z" fill="#F7510B"/>
</svg>
