<svg width="41" height="47" viewBox="0 0 41 47" fill="none" xmlns="http://www.w3.org/2000/svg">
<path fill-rule="evenodd" clip-rule="evenodd" d="M3.23486 5.21875C3.23486 2.41418 5.50842 0.140625 8.31299 0.140625H32.688C35.4926 0.140625 37.7661 2.41418 37.7661 5.21875V5.34674C39.5183 5.79772 40.813 7.38829 40.813 9.28125C40.813 11.177 39.5145 12.7694 37.7585 13.2177C37.7677 13.2923 37.7688 13.3692 37.7608 13.4471L34.4348 45.9471C34.3777 46.5051 33.8791 46.9112 33.3211 46.8541C32.7631 46.797 32.357 46.2983 32.4141 45.7403L35.7296 13.3437H5.27142L8.40015 43.9159C8.45317 44.4341 8.88961 44.8281 9.41049 44.8281H27.6099C28.1708 44.8281 28.6255 45.2828 28.6255 45.8437C28.6255 46.4047 28.1708 46.8594 27.6099 46.8594H9.41049C7.84786 46.8594 6.53854 45.6772 6.37945 44.1227L3.24014 13.4471C3.23216 13.3692 3.23322 13.2923 3.24249 13.2177C1.48644 12.7694 0.187988 11.177 0.187988 9.28125C0.187988 7.38829 1.48268 5.79772 3.23486 5.34674V5.21875ZM32.688 2.17187C34.3707 2.17187 35.7349 3.53601 35.7349 5.21875H5.26611C5.26611 3.53601 6.63025 2.17187 8.31299 2.17187H32.688ZM4.25049 7.25H36.7505C37.8723 7.25 38.7817 8.15942 38.7817 9.28125C38.7817 10.4031 37.8723 11.3125 36.7505 11.3125H4.25049C3.12866 11.3125 2.21924 10.4031 2.21924 9.28125C2.21924 8.15942 3.12866 7.25 4.25049 7.25Z" fill="#F7510B"/>
<path d="M16.438 29.5937C16.438 27.3501 18.2568 25.5312 20.5005 25.5312C22.7441 25.5312 24.563 27.3501 24.563 29.5937C24.563 31.2809 23.5343 32.7301 22.066 33.3439C21.5485 33.5603 21.3043 34.1552 21.5207 34.6727C21.737 35.1902 22.3319 35.4343 22.8495 35.218C25.047 34.2993 26.5942 32.1284 26.5942 29.5937C26.5942 26.2283 23.866 23.5 20.5005 23.5C17.135 23.5 14.4067 26.2283 14.4067 29.5937C14.4067 32.2486 16.1039 34.5044 18.4693 35.3405C18.9982 35.5274 19.5784 35.2502 19.7653 34.7214C19.9523 34.1925 19.6751 33.6123 19.1462 33.4253C17.567 32.8672 16.438 31.361 16.438 29.5937Z" fill="#F7510B"/>
</svg>
