<svg width="46" height="50" viewBox="0 0 46 50" fill="none" xmlns="http://www.w3.org/2000/svg">
<path fill-rule="evenodd" clip-rule="evenodd" d="M36.4801 1.60075C33.6103 -0.0561064 29.9408 0.927145 28.2839 3.7969L7.28144 40.1743C5.62596 43.0417 6.60839 46.7081 9.47576 48.3636C12.3472 50.0214 16.019 49.0337 17.6711 46.1589L27.7798 28.5691C28.055 28.0903 27.8899 27.479 27.4111 27.2038C26.9322 26.9287 26.321 27.0938 26.0458 27.5726L15.937 45.1624C14.8361 47.0781 12.3892 47.7363 10.4758 46.6316C8.56498 45.5284 7.91029 43.0851 9.01349 41.1743L30.016 4.7969C31.1205 2.88373 33.5669 2.22823 35.4801 3.3328C37.3932 4.43737 38.0488 6.88373 36.9442 8.7969L30.7481 19.5289L28.9805 22.5904C28.7044 23.0687 28.8682 23.6803 29.3465 23.9564C29.8248 24.2326 30.4364 24.0687 30.7126 23.5904L32.4801 20.5289L38.6762 9.7969C40.3331 6.92714 39.3498 3.2576 36.4801 1.60075ZM21.0482 7.54086L6.88432 32.4369C6.32684 33.4168 5.16683 33.8822 4.08666 33.5595C2.5982 33.1147 1.90783 31.403 2.67114 30.05L9.75321 17.4965L16.7451 5.103C17.5349 3.70299 19.4295 3.41681 20.5976 4.5211C21.4255 5.30374 21.6115 6.55067 21.0482 7.54086ZM22.7865 8.52985L8.62268 33.4259C7.6047 35.2152 5.48646 36.0651 3.51402 35.4757C0.796021 34.6635 -0.464632 31.538 0.929225 29.0673L8.01129 16.5138L15.0031 4.12029C16.4318 1.58796 19.8588 1.07034 21.9716 3.06776C23.469 4.48338 23.8055 6.7388 22.7865 8.52985ZM28.916 45.157L43.0798 20.261C43.6432 19.2708 43.4571 18.0238 42.6293 17.2412C41.4612 16.1369 39.5666 16.4231 38.7767 17.8231L31.7849 30.2166L24.7028 42.7701C23.9395 44.1231 24.6299 45.8347 26.1183 46.2795C27.1985 46.6023 28.3585 46.1369 28.916 45.157ZM30.6544 46.146L44.8182 21.2499C45.8372 19.4589 45.5007 17.2035 44.0033 15.7879C41.8904 13.7904 38.4634 14.3081 37.0348 16.8404L30.043 29.2339L22.9609 41.7874C21.567 44.2581 22.8277 47.3836 25.5457 48.1958C27.5181 48.7852 29.6364 47.9353 30.6544 46.146ZM13.4658 39.7142C15.5242 38.4801 16.5406 36.7197 16.5802 34.32C16.6312 31.2294 18.0148 28.8329 20.6658 27.2435C22.7242 26.0094 23.7406 24.2489 23.7802 21.8493C23.8312 18.7587 25.2148 16.3622 27.8658 14.7727C29.9242 13.5386 30.9406 11.7782 30.9802 9.37849C30.9893 8.82628 31.4443 8.38602 31.9965 8.39513C32.5487 8.40424 32.989 8.85928 32.9799 9.41149C32.9289 12.5021 31.5453 14.8986 28.8943 16.488C26.8359 17.7222 25.8195 19.4826 25.7799 21.8823C25.7289 24.9728 24.3453 27.3693 21.6943 28.9588C19.6359 30.1929 18.6195 31.9534 18.5799 34.353C18.5289 37.4436 17.1453 39.8401 14.4943 41.4296C14.0206 41.7136 13.4064 41.5598 13.1224 41.0861C12.8384 40.6125 12.9921 39.9982 13.4658 39.7142Z" fill="#F7510B"/>
</svg>
