<svg width="39" height="49" viewBox="0 0 39 49" fill="none" xmlns="http://www.w3.org/2000/svg">
<path fill-rule="evenodd" clip-rule="evenodd" d="M12.3913 3.1875C12.3913 1.50476 13.7554 0.140625 15.4381 0.140625H17.4694C18.2497 0.140625 18.9616 0.433992 19.5006 0.916454C20.0397 0.433992 20.7515 0.140625 21.5319 0.140625H23.5631C25.2459 0.140625 26.61 1.50476 26.61 3.1875V4.3765C26.9277 4.26422 27.2695 4.20312 27.6256 4.20312H29.6569C31.3396 4.20312 32.7038 5.56726 32.7038 7.25V14.3594H35.5513C37.3464 14.3594 38.7524 15.9034 38.5849 17.6907L35.7462 47.9698C35.6938 48.5283 35.1987 48.9386 34.6402 48.8862C34.0817 48.8338 33.6715 48.3387 33.7238 47.7802L36.5625 17.5011C36.6183 16.9053 36.1497 16.3906 35.5513 16.3906H32.6312C32.4749 17.1845 32.073 17.9237 31.4944 18.5797C30.7453 19.4291 29.6933 20.151 28.4456 20.7329C27.1929 21.3172 25.7317 21.7656 24.1525 22.0624C22.5716 22.3596 20.8893 22.5017 19.202 22.4827C17.5148 22.4637 15.8469 22.2839 14.2941 21.9509C12.7432 21.6183 11.322 21.1359 10.1203 20.5201C8.92406 19.907 7.92998 19.1534 7.25261 18.2713C6.80798 17.6922 6.50175 17.0582 6.37008 16.3906H3.44997C2.85161 16.3906 2.38293 16.9053 2.43878 17.5011L5.1048 45.9386C5.15373 46.4605 5.5918 46.8594 6.11599 46.8594H29.6569C30.2178 46.8594 30.6725 47.3141 30.6725 47.875C30.6725 48.4359 30.2178 48.8906 29.6569 48.8906H6.11599C4.54342 48.8906 3.2292 47.6939 3.08241 46.1282L0.416397 17.6907C0.248841 15.9034 1.6549 14.3594 3.44997 14.3594H6.2975V7.25C6.2975 5.56726 7.66164 4.20312 9.34438 4.20312H11.3756C11.7317 4.20312 12.0736 4.26422 12.3913 4.3765V3.1875ZM8.32875 15.2082C8.34305 15.2943 8.34638 15.3838 8.33738 15.4749C8.29067 15.9477 8.43149 16.4713 8.86365 17.0341C9.3049 17.6087 10.0281 18.1903 11.0468 18.7124C11.458 18.9232 11.9077 19.1192 12.3913 19.298V7.25C12.3913 6.68909 11.9365 6.23438 11.3756 6.23438H9.34438C8.78347 6.23438 8.32875 6.68909 8.32875 7.25V15.2082ZM14.3235 19.8754C14.4542 19.9063 14.5863 19.9361 14.72 19.9648C15.9076 20.2195 17.1809 20.3778 18.485 20.4321V3.1875C18.485 2.62659 18.0303 2.17188 17.4694 2.17188H15.4381C14.8772 2.17188 14.4225 2.62659 14.4225 3.1875V19.4375C14.4225 19.5943 14.387 19.7428 14.3235 19.8754ZM20.5163 20.4321C21.6351 20.3855 22.7339 20.2623 23.7772 20.0662C24.0499 20.0149 24.3173 19.959 24.5788 19.8986V3.1875C24.5788 2.62659 24.124 2.17188 23.5631 2.17188H21.5319C20.971 2.17188 20.5163 2.62659 20.5163 3.1875V20.4321ZM26.61 19.298C26.9529 19.1712 27.2791 19.0356 27.5871 18.892C28.6639 18.3898 29.459 17.8167 29.971 17.2361C30.4752 16.6645 30.6711 16.1283 30.6725 15.6544V7.25C30.6725 6.68909 30.2178 6.23438 29.6569 6.23438H27.6256C27.0647 6.23438 26.61 6.68909 26.61 7.25V19.298Z" fill="#F7510B"/>
<path d="M23.8009 36.0069C24.7549 33.9761 23.882 31.5565 21.8512 30.6026C19.8205 29.6486 17.4009 30.5215 16.4469 32.5522C15.493 34.583 16.3659 37.0026 18.3966 37.9566C18.9043 38.195 19.1225 38.7999 18.884 39.3076C18.6455 39.8153 18.0406 40.0335 17.533 39.7951C14.4868 38.3641 13.1775 34.7347 14.6084 31.6886C16.0394 28.6425 19.6688 27.3331 22.7149 28.7641C25.761 30.195 27.0704 33.8244 25.6394 36.8705C24.9407 38.358 23.7157 39.4324 22.2933 39.9741C21.7691 40.1737 21.1823 39.9106 20.9827 39.3864C20.783 38.8623 21.0461 38.2755 21.5703 38.0759C22.5208 37.7139 23.3348 36.9991 23.8009 36.0069Z" fill="#F7510B"/>
</svg>
