<svg width="49" height="48" viewBox="0 0 49 48" fill="none" xmlns="http://www.w3.org/2000/svg">
<mask id="path-1-inside-1_508_986" fill="white">
<path d="M16.827 7.13603C16.4188 6.72781 16.4188 6.06596 16.827 5.65774L18.3053 4.17945C18.7135 3.77123 19.3753 3.77123 19.7836 4.17945C20.1918 4.58767 20.1918 5.24952 19.7836 5.65774L18.3053 7.13603C17.8971 7.54425 17.2352 7.54425 16.827 7.13603Z"/>
<path d="M11.3914 10.4959C10.9831 10.9041 10.9831 11.5659 11.3914 11.9742C11.7996 12.3824 12.4614 12.3824 12.8697 11.9742L14.3479 10.4959C14.7562 10.0876 14.7562 9.42579 14.3479 9.01758C13.9397 8.60936 13.2779 8.60936 12.8697 9.01758L11.3914 10.4959Z"/>
<path d="M17.6632 12.5865C17.255 12.9947 17.255 13.6566 17.6632 14.0648C18.0714 14.473 18.7333 14.473 19.1415 14.0648L20.6198 12.5865C21.028 12.1783 21.028 11.5164 20.6198 11.1082C20.2116 10.7 19.5497 10.7 19.1415 11.1082L17.6632 12.5865Z"/>
<path d="M23.9351 6.31463C23.5269 6.72285 23.5269 7.3847 23.9351 7.79292C24.3433 8.20114 25.0051 8.20114 25.4134 7.79292L26.8917 6.31463C27.2999 5.90641 27.2999 5.24456 26.8917 4.83634C26.4834 4.42812 25.8216 4.42812 25.4134 4.83634L23.9351 6.31463Z"/>
<path d="M30.2069 9.88354C29.7987 9.47532 29.7987 8.81347 30.2069 8.40525L31.6852 6.92696C32.0934 6.51874 32.7553 6.51874 33.1635 6.92696C33.5717 7.33518 33.5717 7.99703 33.1635 8.40525L31.6852 9.88354C31.277 10.2918 30.6151 10.2918 30.2069 9.88354Z"/>
<path d="M34.3882 12.5865C33.9799 12.9947 33.9799 13.6566 34.3882 14.0648C34.7964 14.473 35.4582 14.473 35.8665 14.0648L37.3447 12.5865C37.753 12.1783 37.753 11.5164 37.3447 11.1082C36.9365 10.7 36.2747 10.7 35.8665 11.1082L34.3882 12.5865Z"/>
<path d="M25.1895 14.692C24.7812 14.2838 24.7812 13.6219 25.1895 13.2137L26.6677 11.7354C27.076 11.3272 27.7378 11.3272 28.146 11.7354C28.5543 12.1436 28.5543 12.8055 28.146 13.2137L26.6677 14.692C26.2595 15.1002 25.5977 15.1002 25.1895 14.692Z"/>
<path fill-rule="evenodd" clip-rule="evenodd" d="M5.03347 18.4787C2.72473 18.4308 0.841052 16.4863 1.50681 14.2752C1.82019 13.2343 2.24424 12.2154 2.77588 11.2299C3.99401 8.97188 5.75308 6.93372 7.95265 5.2318C10.1522 3.52987 12.7492 2.19751 15.5953 1.31079C18.4415 0.424067 21.481 0.000349898 24.5404 0.0638267C27.5998 0.127304 30.6192 0.676735 33.4261 1.68075C36.233 2.68476 38.7725 4.12369 40.8996 5.91539C43.0266 7.70708 44.6997 9.81645 45.8231 12.1231C46.0015 12.4893 46.1655 12.8594 46.3149 13.2328C47.602 16.4487 44.6397 19.3005 41.1766 19.2286L5.03347 18.4787ZM3.50866 14.8779C3.78044 13.9752 4.14964 13.0867 4.61583 12.2225C5.684 10.2425 7.24379 8.42365 9.23202 6.88525C11.2208 5.34641 13.5917 4.12476 16.2172 3.30678C18.8424 2.48889 21.657 2.09507 24.4971 2.15399C27.3371 2.21292 30.1329 2.72315 32.722 3.64923C35.3113 4.57541 37.6295 5.89434 39.5527 7.51435C41.4754 9.13389 42.9584 11.0159 43.9436 13.0385C44.1 13.3597 44.2435 13.6836 44.374 14.0096C44.6873 14.7924 44.5158 15.4723 43.9851 16.0518C43.4047 16.6858 42.3895 17.1627 41.22 17.1384L5.07684 16.3885C4.48489 16.3763 3.9985 16.1188 3.72415 15.807C3.47801 15.5273 3.40372 15.2264 3.50866 14.8779Z"/>
<path d="M4.58944 39.2196C2.28021 39.2196 0.408203 41.0916 0.408203 43.4008C0.408203 45.71 2.28021 47.5821 4.58944 47.5821H34.9034C35.4807 47.5821 35.9487 47.1141 35.9487 46.5367C35.9487 45.9594 35.4807 45.4914 34.9034 45.4914H4.58944C3.43482 45.4914 2.49882 44.5554 2.49882 43.4008C2.49882 42.2462 3.43482 41.3102 4.58944 41.3102H44.3112C45.4658 41.3102 46.4018 42.2462 46.4018 43.4008C46.4018 44.5554 45.4658 45.4914 44.3112 45.4914H40.1299C39.5526 45.4914 39.0846 45.9594 39.0846 46.5367C39.0846 47.1141 39.5526 47.5821 40.1299 47.5821H44.3112C46.6204 47.5821 48.4924 45.7101 48.4924 43.4008C48.4924 41.0916 46.6204 39.2196 44.3112 39.2196H4.58944Z"/>
<path d="M2.15667 21.7212C2.79937 22.3054 3.32644 22.4946 3.7532 22.4946C4.17996 22.4946 4.70703 22.3054 5.34973 21.7212C6.24015 20.9117 7.2462 20.404 8.35256 20.404C9.45892 20.404 10.465 20.9117 11.3554 21.7212C11.9981 22.3054 12.5252 22.4946 12.9519 22.4946C13.3787 22.4946 13.9058 22.3054 14.5484 21.7212C15.4389 20.9117 16.4449 20.404 17.5513 20.404C18.6576 20.404 19.6637 20.9117 20.5541 21.7212C21.1968 22.3054 21.7239 22.4946 22.1506 22.4946C22.5774 22.4946 23.1045 22.3054 23.7472 21.7212C24.6376 20.9117 25.6436 20.404 26.75 20.404C27.8564 20.404 28.8624 20.9117 29.7528 21.7212C30.3955 22.3054 30.9226 22.4946 31.3494 22.4946C31.7761 22.4946 32.3032 22.3054 32.9459 21.7212C33.8363 20.9117 34.8424 20.404 35.9487 20.404C37.0551 20.404 38.0611 20.9117 38.9515 21.7212C39.5942 22.3054 40.1213 22.4946 40.5481 22.4946C40.9748 22.4946 41.5019 22.3054 42.1446 21.7212C43.035 20.9117 44.0411 20.404 45.1474 20.404C46.2538 20.404 47.2598 20.9117 48.1503 21.7212C48.5774 22.1095 48.6089 22.7706 48.2206 23.1978C47.8322 23.625 47.1711 23.6564 46.744 23.2681C46.1013 22.6838 45.5742 22.4946 45.1474 22.4946C44.7207 22.4946 44.1936 22.6838 43.5509 23.2681C42.6605 24.0776 41.6544 24.5853 40.5481 24.5853C39.4417 24.5853 38.4357 24.0776 37.5452 23.2681C36.9026 22.6838 36.3755 22.4946 35.9487 22.4946C35.522 22.4946 34.9949 22.6838 34.3522 23.2681C33.4618 24.0776 32.4557 24.5853 31.3494 24.5853C30.243 24.5853 29.237 24.0776 28.3465 23.2681C27.7038 22.6838 27.1768 22.4946 26.75 22.4946C26.3232 22.4946 25.7962 22.6838 25.1535 23.2681C24.263 24.0776 23.257 24.5853 22.1506 24.5853C21.0443 24.5853 20.0382 24.0776 19.1478 23.2681C18.5051 22.6838 17.978 22.4946 17.5513 22.4946C17.1245 22.4946 16.5974 22.6838 15.9548 23.2681C15.0643 24.0776 14.0583 24.5853 12.9519 24.5853C11.8456 24.5853 10.8395 24.0776 9.94909 23.2681C9.30639 22.6838 8.77932 22.4946 8.35256 22.4946C7.9258 22.4946 7.39873 22.6838 6.75603 23.2681C5.86561 24.0776 4.85956 24.5853 3.7532 24.5853C2.64684 24.5853 1.64079 24.0776 0.750369 23.2681C0.323195 22.8798 0.291714 22.2187 0.680054 21.7915C1.06839 21.3643 1.7295 21.3328 2.15667 21.7212Z"/>
<path d="M4.58945 29.8118C4.58945 29.2345 5.05745 28.7665 5.63476 28.7665H45.3565C45.9338 28.7665 46.4018 28.2985 46.4018 27.7212C46.4018 27.1439 45.9338 26.6759 45.3565 26.6759H5.63476C3.90283 26.6759 2.49883 28.0799 2.49883 29.8118C2.49883 31.5437 3.90283 32.9477 5.63476 32.9477H43.2659C43.8432 32.9477 44.3112 33.4157 44.3112 33.993C44.3112 34.5703 43.8432 35.0383 43.2659 35.0383H3.54414C2.96683 35.0383 2.49883 35.5063 2.49883 36.0837C2.49883 36.661 2.96683 37.129 3.54414 37.129H43.2659C44.9978 37.129 46.4018 35.725 46.4018 33.993C46.4018 32.2611 44.9978 30.8571 43.2659 30.8571H5.63476C5.05745 30.8571 4.58945 30.3891 4.58945 29.8118Z"/>
</mask>
<path d="M16.827 7.13603C16.4188 6.72781 16.4188 6.06596 16.827 5.65774L18.3053 4.17945C18.7135 3.77123 19.3753 3.77123 19.7836 4.17945C20.1918 4.58767 20.1918 5.24952 19.7836 5.65774L18.3053 7.13603C17.8971 7.54425 17.2352 7.54425 16.827 7.13603Z" fill="#F7510B"/>
<path d="M11.3914 10.4959C10.9831 10.9041 10.9831 11.5659 11.3914 11.9742C11.7996 12.3824 12.4614 12.3824 12.8697 11.9742L14.3479 10.4959C14.7562 10.0876 14.7562 9.42579 14.3479 9.01758C13.9397 8.60936 13.2779 8.60936 12.8697 9.01758L11.3914 10.4959Z" fill="#F7510B"/>
<path d="M17.6632 12.5865C17.255 12.9947 17.255 13.6566 17.6632 14.0648C18.0714 14.473 18.7333 14.473 19.1415 14.0648L20.6198 12.5865C21.028 12.1783 21.028 11.5164 20.6198 11.1082C20.2116 10.7 19.5497 10.7 19.1415 11.1082L17.6632 12.5865Z" fill="#F7510B"/>
<path d="M23.9351 6.31463C23.5269 6.72285 23.5269 7.3847 23.9351 7.79292C24.3433 8.20114 25.0051 8.20114 25.4134 7.79292L26.8917 6.31463C27.2999 5.90641 27.2999 5.24456 26.8917 4.83634C26.4834 4.42812 25.8216 4.42812 25.4134 4.83634L23.9351 6.31463Z" fill="#F7510B"/>
<path d="M30.2069 9.88354C29.7987 9.47532 29.7987 8.81347 30.2069 8.40525L31.6852 6.92696C32.0934 6.51874 32.7553 6.51874 33.1635 6.92696C33.5717 7.33518 33.5717 7.99703 33.1635 8.40525L31.6852 9.88354C31.277 10.2918 30.6151 10.2918 30.2069 9.88354Z" fill="#F7510B"/>
<path d="M34.3882 12.5865C33.9799 12.9947 33.9799 13.6566 34.3882 14.0648C34.7964 14.473 35.4582 14.473 35.8665 14.0648L37.3447 12.5865C37.753 12.1783 37.753 11.5164 37.3447 11.1082C36.9365 10.7 36.2747 10.7 35.8665 11.1082L34.3882 12.5865Z" fill="#F7510B"/>
<path d="M25.1895 14.692C24.7812 14.2838 24.7812 13.6219 25.1895 13.2137L26.6677 11.7354C27.076 11.3272 27.7378 11.3272 28.146 11.7354C28.5543 12.1436 28.5543 12.8055 28.146 13.2137L26.6677 14.692C26.2595 15.1002 25.5977 15.1002 25.1895 14.692Z" fill="#F7510B"/>
<path fill-rule="evenodd" clip-rule="evenodd" d="M5.03347 18.4787C2.72473 18.4308 0.841052 16.4863 1.50681 14.2752C1.82019 13.2343 2.24424 12.2154 2.77588 11.2299C3.99401 8.97188 5.75308 6.93372 7.95265 5.2318C10.1522 3.52987 12.7492 2.19751 15.5953 1.31079C18.4415 0.424067 21.481 0.000349898 24.5404 0.0638267C27.5998 0.127304 30.6192 0.676735 33.4261 1.68075C36.233 2.68476 38.7725 4.12369 40.8996 5.91539C43.0266 7.70708 44.6997 9.81645 45.8231 12.1231C46.0015 12.4893 46.1655 12.8594 46.3149 13.2328C47.602 16.4487 44.6397 19.3005 41.1766 19.2286L5.03347 18.4787ZM3.50866 14.8779C3.78044 13.9752 4.14964 13.0867 4.61583 12.2225C5.684 10.2425 7.24379 8.42365 9.23202 6.88525C11.2208 5.34641 13.5917 4.12476 16.2172 3.30678C18.8424 2.48889 21.657 2.09507 24.4971 2.15399C27.3371 2.21292 30.1329 2.72315 32.722 3.64923C35.3113 4.57541 37.6295 5.89434 39.5527 7.51435C41.4754 9.13389 42.9584 11.0159 43.9436 13.0385C44.1 13.3597 44.2435 13.6836 44.374 14.0096C44.6873 14.7924 44.5158 15.4723 43.9851 16.0518C43.4047 16.6858 42.3895 17.1627 41.22 17.1384L5.07684 16.3885C4.48489 16.3763 3.9985 16.1188 3.72415 15.807C3.47801 15.5273 3.40372 15.2264 3.50866 14.8779Z" fill="#F7510B"/>
<path d="M4.58944 39.2196C2.28021 39.2196 0.408203 41.0916 0.408203 43.4008C0.408203 45.71 2.28021 47.5821 4.58944 47.5821H34.9034C35.4807 47.5821 35.9487 47.1141 35.9487 46.5367C35.9487 45.9594 35.4807 45.4914 34.9034 45.4914H4.58944C3.43482 45.4914 2.49882 44.5554 2.49882 43.4008C2.49882 42.2462 3.43482 41.3102 4.58944 41.3102H44.3112C45.4658 41.3102 46.4018 42.2462 46.4018 43.4008C46.4018 44.5554 45.4658 45.4914 44.3112 45.4914H40.1299C39.5526 45.4914 39.0846 45.9594 39.0846 46.5367C39.0846 47.1141 39.5526 47.5821 40.1299 47.5821H44.3112C46.6204 47.5821 48.4924 45.7101 48.4924 43.4008C48.4924 41.0916 46.6204 39.2196 44.3112 39.2196H4.58944Z" fill="#F7510B"/>
<path d="M2.15667 21.7212C2.79937 22.3054 3.32644 22.4946 3.7532 22.4946C4.17996 22.4946 4.70703 22.3054 5.34973 21.7212C6.24015 20.9117 7.2462 20.404 8.35256 20.404C9.45892 20.404 10.465 20.9117 11.3554 21.7212C11.9981 22.3054 12.5252 22.4946 12.9519 22.4946C13.3787 22.4946 13.9058 22.3054 14.5484 21.7212C15.4389 20.9117 16.4449 20.404 17.5513 20.404C18.6576 20.404 19.6637 20.9117 20.5541 21.7212C21.1968 22.3054 21.7239 22.4946 22.1506 22.4946C22.5774 22.4946 23.1045 22.3054 23.7472 21.7212C24.6376 20.9117 25.6436 20.404 26.75 20.404C27.8564 20.404 28.8624 20.9117 29.7528 21.7212C30.3955 22.3054 30.9226 22.4946 31.3494 22.4946C31.7761 22.4946 32.3032 22.3054 32.9459 21.7212C33.8363 20.9117 34.8424 20.404 35.9487 20.404C37.0551 20.404 38.0611 20.9117 38.9515 21.7212C39.5942 22.3054 40.1213 22.4946 40.5481 22.4946C40.9748 22.4946 41.5019 22.3054 42.1446 21.7212C43.035 20.9117 44.0411 20.404 45.1474 20.404C46.2538 20.404 47.2598 20.9117 48.1503 21.7212C48.5774 22.1095 48.6089 22.7706 48.2206 23.1978C47.8322 23.625 47.1711 23.6564 46.744 23.2681C46.1013 22.6838 45.5742 22.4946 45.1474 22.4946C44.7207 22.4946 44.1936 22.6838 43.5509 23.2681C42.6605 24.0776 41.6544 24.5853 40.5481 24.5853C39.4417 24.5853 38.4357 24.0776 37.5452 23.2681C36.9026 22.6838 36.3755 22.4946 35.9487 22.4946C35.522 22.4946 34.9949 22.6838 34.3522 23.2681C33.4618 24.0776 32.4557 24.5853 31.3494 24.5853C30.243 24.5853 29.237 24.0776 28.3465 23.2681C27.7038 22.6838 27.1768 22.4946 26.75 22.4946C26.3232 22.4946 25.7962 22.6838 25.1535 23.2681C24.263 24.0776 23.257 24.5853 22.1506 24.5853C21.0443 24.5853 20.0382 24.0776 19.1478 23.2681C18.5051 22.6838 17.978 22.4946 17.5513 22.4946C17.1245 22.4946 16.5974 22.6838 15.9548 23.2681C15.0643 24.0776 14.0583 24.5853 12.9519 24.5853C11.8456 24.5853 10.8395 24.0776 9.94909 23.2681C9.30639 22.6838 8.77932 22.4946 8.35256 22.4946C7.9258 22.4946 7.39873 22.6838 6.75603 23.2681C5.86561 24.0776 4.85956 24.5853 3.7532 24.5853C2.64684 24.5853 1.64079 24.0776 0.750369 23.2681C0.323195 22.8798 0.291714 22.2187 0.680054 21.7915C1.06839 21.3643 1.7295 21.3328 2.15667 21.7212Z" fill="#F7510B"/>
<path d="M4.58945 29.8118C4.58945 29.2345 5.05745 28.7665 5.63476 28.7665H45.3565C45.9338 28.7665 46.4018 28.2985 46.4018 27.7212C46.4018 27.1439 45.9338 26.6759 45.3565 26.6759H5.63476C3.90283 26.6759 2.49883 28.0799 2.49883 29.8118C2.49883 31.5437 3.90283 32.9477 5.63476 32.9477H43.2659C43.8432 32.9477 44.3112 33.4157 44.3112 33.993C44.3112 34.5703 43.8432 35.0383 43.2659 35.0383H3.54414C2.96683 35.0383 2.49883 35.5063 2.49883 36.0837C2.49883 36.661 2.96683 37.129 3.54414 37.129H43.2659C44.9978 37.129 46.4018 35.725 46.4018 33.993C46.4018 32.2611 44.9978 30.8571 43.2659 30.8571H5.63476C5.05745 30.8571 4.58945 30.3891 4.58945 29.8118Z" fill="#F7510B"/>
<path d="M16.827 7.13603C16.4188 6.72781 16.4188 6.06596 16.827 5.65774L18.3053 4.17945C18.7135 3.77123 19.3753 3.77123 19.7836 4.17945C20.1918 4.58767 20.1918 5.24952 19.7836 5.65774L18.3053 7.13603C17.8971 7.54425 17.2352 7.54425 16.827 7.13603Z" stroke="#F7510B" stroke-width="4.18124" mask="url(#path-1-inside-1_508_986)"/>
<path d="M11.3914 10.4959C10.9831 10.9041 10.9831 11.5659 11.3914 11.9742C11.7996 12.3824 12.4614 12.3824 12.8697 11.9742L14.3479 10.4959C14.7562 10.0876 14.7562 9.42579 14.3479 9.01758C13.9397 8.60936 13.2779 8.60936 12.8697 9.01758L11.3914 10.4959Z" stroke="#F7510B" stroke-width="4.18124" mask="url(#path-1-inside-1_508_986)"/>
<path d="M17.6632 12.5865C17.255 12.9947 17.255 13.6566 17.6632 14.0648C18.0714 14.473 18.7333 14.473 19.1415 14.0648L20.6198 12.5865C21.028 12.1783 21.028 11.5164 20.6198 11.1082C20.2116 10.7 19.5497 10.7 19.1415 11.1082L17.6632 12.5865Z" stroke="#F7510B" stroke-width="4.18124" mask="url(#path-1-inside-1_508_986)"/>
<path d="M23.9351 6.31463C23.5269 6.72285 23.5269 7.3847 23.9351 7.79292C24.3433 8.20114 25.0051 8.20114 25.4134 7.79292L26.8917 6.31463C27.2999 5.90641 27.2999 5.24456 26.8917 4.83634C26.4834 4.42812 25.8216 4.42812 25.4134 4.83634L23.9351 6.31463Z" stroke="#F7510B" stroke-width="4.18124" mask="url(#path-1-inside-1_508_986)"/>
<path d="M30.2069 9.88354C29.7987 9.47532 29.7987 8.81347 30.2069 8.40525L31.6852 6.92696C32.0934 6.51874 32.7553 6.51874 33.1635 6.92696C33.5717 7.33518 33.5717 7.99703 33.1635 8.40525L31.6852 9.88354C31.277 10.2918 30.6151 10.2918 30.2069 9.88354Z" stroke="#F7510B" stroke-width="4.18124" mask="url(#path-1-inside-1_508_986)"/>
<path d="M34.3882 12.5865C33.9799 12.9947 33.9799 13.6566 34.3882 14.0648C34.7964 14.473 35.4582 14.473 35.8665 14.0648L37.3447 12.5865C37.753 12.1783 37.753 11.5164 37.3447 11.1082C36.9365 10.7 36.2747 10.7 35.8665 11.1082L34.3882 12.5865Z" stroke="#F7510B" stroke-width="4.18124" mask="url(#path-1-inside-1_508_986)"/>
<path d="M25.1895 14.692C24.7812 14.2838 24.7812 13.6219 25.1895 13.2137L26.6677 11.7354C27.076 11.3272 27.7378 11.3272 28.146 11.7354C28.5543 12.1436 28.5543 12.8055 28.146 13.2137L26.6677 14.692C26.2595 15.1002 25.5977 15.1002 25.1895 14.692Z" stroke="#F7510B" stroke-width="4.18124" mask="url(#path-1-inside-1_508_986)"/>
<path fill-rule="evenodd" clip-rule="evenodd" d="M5.03347 18.4787C2.72473 18.4308 0.841052 16.4863 1.50681 14.2752C1.82019 13.2343 2.24424 12.2154 2.77588 11.2299C3.99401 8.97188 5.75308 6.93372 7.95265 5.2318C10.1522 3.52987 12.7492 2.19751 15.5953 1.31079C18.4415 0.424067 21.481 0.000349898 24.5404 0.0638267C27.5998 0.127304 30.6192 0.676735 33.4261 1.68075C36.233 2.68476 38.7725 4.12369 40.8996 5.91539C43.0266 7.70708 44.6997 9.81645 45.8231 12.1231C46.0015 12.4893 46.1655 12.8594 46.3149 13.2328C47.602 16.4487 44.6397 19.3005 41.1766 19.2286L5.03347 18.4787ZM3.50866 14.8779C3.78044 13.9752 4.14964 13.0867 4.61583 12.2225C5.684 10.2425 7.24379 8.42365 9.23202 6.88525C11.2208 5.34641 13.5917 4.12476 16.2172 3.30678C18.8424 2.48889 21.657 2.09507 24.4971 2.15399C27.3371 2.21292 30.1329 2.72315 32.722 3.64923C35.3113 4.57541 37.6295 5.89434 39.5527 7.51435C41.4754 9.13389 42.9584 11.0159 43.9436 13.0385C44.1 13.3597 44.2435 13.6836 44.374 14.0096C44.6873 14.7924 44.5158 15.4723 43.9851 16.0518C43.4047 16.6858 42.3895 17.1627 41.22 17.1384L5.07684 16.3885C4.48489 16.3763 3.9985 16.1188 3.72415 15.807C3.47801 15.5273 3.40372 15.2264 3.50866 14.8779Z" stroke="#F7510B" stroke-width="4.18124" mask="url(#path-1-inside-1_508_986)"/>
<path d="M4.58944 39.2196C2.28021 39.2196 0.408203 41.0916 0.408203 43.4008C0.408203 45.71 2.28021 47.5821 4.58944 47.5821H34.9034C35.4807 47.5821 35.9487 47.1141 35.9487 46.5367C35.9487 45.9594 35.4807 45.4914 34.9034 45.4914H4.58944C3.43482 45.4914 2.49882 44.5554 2.49882 43.4008C2.49882 42.2462 3.43482 41.3102 4.58944 41.3102H44.3112C45.4658 41.3102 46.4018 42.2462 46.4018 43.4008C46.4018 44.5554 45.4658 45.4914 44.3112 45.4914H40.1299C39.5526 45.4914 39.0846 45.9594 39.0846 46.5367C39.0846 47.1141 39.5526 47.5821 40.1299 47.5821H44.3112C46.6204 47.5821 48.4924 45.7101 48.4924 43.4008C48.4924 41.0916 46.6204 39.2196 44.3112 39.2196H4.58944Z" stroke="#F7510B" stroke-width="4.18124" mask="url(#path-1-inside-1_508_986)"/>
<path d="M2.15667 21.7212C2.79937 22.3054 3.32644 22.4946 3.7532 22.4946C4.17996 22.4946 4.70703 22.3054 5.34973 21.7212C6.24015 20.9117 7.2462 20.404 8.35256 20.404C9.45892 20.404 10.465 20.9117 11.3554 21.7212C11.9981 22.3054 12.5252 22.4946 12.9519 22.4946C13.3787 22.4946 13.9058 22.3054 14.5484 21.7212C15.4389 20.9117 16.4449 20.404 17.5513 20.404C18.6576 20.404 19.6637 20.9117 20.5541 21.7212C21.1968 22.3054 21.7239 22.4946 22.1506 22.4946C22.5774 22.4946 23.1045 22.3054 23.7472 21.7212C24.6376 20.9117 25.6436 20.404 26.75 20.404C27.8564 20.404 28.8624 20.9117 29.7528 21.7212C30.3955 22.3054 30.9226 22.4946 31.3494 22.4946C31.7761 22.4946 32.3032 22.3054 32.9459 21.7212C33.8363 20.9117 34.8424 20.404 35.9487 20.404C37.0551 20.404 38.0611 20.9117 38.9515 21.7212C39.5942 22.3054 40.1213 22.4946 40.5481 22.4946C40.9748 22.4946 41.5019 22.3054 42.1446 21.7212C43.035 20.9117 44.0411 20.404 45.1474 20.404C46.2538 20.404 47.2598 20.9117 48.1503 21.7212C48.5774 22.1095 48.6089 22.7706 48.2206 23.1978C47.8322 23.625 47.1711 23.6564 46.744 23.2681C46.1013 22.6838 45.5742 22.4946 45.1474 22.4946C44.7207 22.4946 44.1936 22.6838 43.5509 23.2681C42.6605 24.0776 41.6544 24.5853 40.5481 24.5853C39.4417 24.5853 38.4357 24.0776 37.5452 23.2681C36.9026 22.6838 36.3755 22.4946 35.9487 22.4946C35.522 22.4946 34.9949 22.6838 34.3522 23.2681C33.4618 24.0776 32.4557 24.5853 31.3494 24.5853C30.243 24.5853 29.237 24.0776 28.3465 23.2681C27.7038 22.6838 27.1768 22.4946 26.75 22.4946C26.3232 22.4946 25.7962 22.6838 25.1535 23.2681C24.263 24.0776 23.257 24.5853 22.1506 24.5853C21.0443 24.5853 20.0382 24.0776 19.1478 23.2681C18.5051 22.6838 17.978 22.4946 17.5513 22.4946C17.1245 22.4946 16.5974 22.6838 15.9548 23.2681C15.0643 24.0776 14.0583 24.5853 12.9519 24.5853C11.8456 24.5853 10.8395 24.0776 9.94909 23.2681C9.30639 22.6838 8.77932 22.4946 8.35256 22.4946C7.9258 22.4946 7.39873 22.6838 6.75603 23.2681C5.86561 24.0776 4.85956 24.5853 3.7532 24.5853C2.64684 24.5853 1.64079 24.0776 0.750369 23.2681C0.323195 22.8798 0.291714 22.2187 0.680054 21.7915C1.06839 21.3643 1.7295 21.3328 2.15667 21.7212Z" stroke="#F7510B" stroke-width="4.18124" mask="url(#path-1-inside-1_508_986)"/>
<path d="M4.58945 29.8118C4.58945 29.2345 5.05745 28.7665 5.63476 28.7665H45.3565C45.9338 28.7665 46.4018 28.2985 46.4018 27.7212C46.4018 27.1439 45.9338 26.6759 45.3565 26.6759H5.63476C3.90283 26.6759 2.49883 28.0799 2.49883 29.8118C2.49883 31.5437 3.90283 32.9477 5.63476 32.9477H43.2659C43.8432 32.9477 44.3112 33.4157 44.3112 33.993C44.3112 34.5703 43.8432 35.0383 43.2659 35.0383H3.54414C2.96683 35.0383 2.49883 35.5063 2.49883 36.0837C2.49883 36.661 2.96683 37.129 3.54414 37.129H43.2659C44.9978 37.129 46.4018 35.725 46.4018 33.993C46.4018 32.2611 44.9978 30.8571 43.2659 30.8571H5.63476C5.05745 30.8571 4.58945 30.3891 4.58945 29.8118Z" stroke="#F7510B" stroke-width="4.18124" mask="url(#path-1-inside-1_508_986)"/>
</svg>
