<svg width="33" height="59" viewBox="0 0 33 59" fill="none" xmlns="http://www.w3.org/2000/svg">
<path fill-rule="evenodd" clip-rule="evenodd" d="M19.8855 8.60911H21.7349C24.0476 8.60911 25.9224 10.4839 25.9224 12.7966C25.9224 13.5681 25.7137 14.2909 25.3498 14.9116C28.0184 15.1513 30.1099 17.3938 30.1099 20.1247C30.1099 21.4551 29.6136 22.6695 28.796 23.593C30.7861 24.3342 32.2036 26.2514 32.2036 28.4997C32.2036 31.3906 29.8601 33.7341 26.9692 33.7341H8.18212L15.5073 55.7098C15.8255 56.6642 17.1755 56.6642 17.4936 55.7098L23.8823 36.5437C24.0652 35.9952 24.658 35.6988 25.2065 35.8816C25.755 36.0644 26.0515 36.6573 25.8686 37.2058L19.48 56.3719C18.5255 59.2352 14.4755 59.2352 13.521 56.3719L6.08547 34.0652C6.04887 33.9554 6.03148 33.8438 6.03146 33.7341C3.14072 33.734 0.797363 31.3905 0.797363 28.4997C0.797363 26.2514 2.21487 24.3342 4.20495 23.593C3.38741 22.6695 2.89111 21.4551 2.89111 20.1247C2.89111 17.3938 4.98257 15.1513 7.65118 14.9116C7.28725 14.2909 7.07861 13.5681 7.07861 12.7966C7.07861 10.4839 8.95342 8.60911 11.2661 8.60911H12.3719C12.4528 8.10706 12.5963 7.58476 12.7638 7.08337C13.079 6.14022 13.5294 5.12891 14.0202 4.20092C14.5096 3.27558 15.0572 2.39941 15.5788 1.73635C15.8376 1.40736 16.1124 1.10202 16.3914 0.867123C16.6279 0.668 17.0423 0.366056 17.5628 0.347659C18.4167 0.317474 18.8368 0.992403 18.9935 1.33431C19.1702 1.72003 19.2676 2.19367 19.3323 2.63696C19.4448 3.40851 19.4954 4.38734 19.5433 5.3154C19.5514 5.47335 19.5595 5.62983 19.5678 5.78357C19.628 6.89896 19.6994 7.86146 19.8526 8.48556C19.8639 8.53181 19.875 8.57284 19.8855 8.60911ZM14.3992 9.52998C14.3715 9.18935 14.4721 8.57752 14.7496 7.74703C15.0213 6.93406 15.4219 6.02894 15.871 5.17986C16.3215 4.32813 16.803 3.56658 17.2244 3.03092L17.2661 2.97837C17.3593 3.63859 17.4033 4.48443 17.4512 5.4041C17.4596 5.5661 17.4682 5.73043 17.4771 5.8964C17.5348 6.96499 17.6104 8.13423 17.8192 8.98479C17.9177 9.38595 18.0855 9.89844 18.4354 10.2723C18.6309 10.4813 18.9079 10.6727 19.2699 10.7409C19.5264 10.7893 19.7683 10.7651 19.9834 10.7029H21.7349C22.8912 10.7029 23.8286 11.6403 23.8286 12.7966C23.8286 13.953 22.8912 14.8904 21.7349 14.8904H19.6411C19.0629 14.8904 18.5942 15.3591 18.5942 15.9372C18.5942 16.5154 19.0629 16.9841 19.6411 16.9841H24.8755C26.61 16.9841 28.0161 18.3902 28.0161 20.1247C28.0161 21.8593 26.61 23.2654 24.8755 23.2654H15.4536C14.8754 23.2654 14.4067 23.7341 14.4067 24.3122C14.4067 24.8904 14.8754 25.3591 15.4536 25.3591H26.9692C28.7038 25.3591 30.1099 26.7652 30.1099 28.4997C30.1099 30.2343 28.7038 31.6404 26.9692 31.6404H6.03174C4.29722 31.6404 2.89111 30.2343 2.89111 28.4997C2.89111 26.7652 4.29722 25.3591 6.03174 25.3591H9.32192C9.90009 25.3591 10.3688 24.8904 10.3688 24.3122C10.3688 23.7341 9.90009 23.2654 9.32192 23.2654H8.12549C6.39097 23.2654 4.98486 21.8593 4.98486 20.1247C4.98486 18.3902 6.39097 16.9841 8.12549 16.9841H11.1166C11.1333 16.9841 11.1499 16.9837 11.1664 16.983C11.1995 16.9837 11.2328 16.9841 11.2661 16.9841H12.313C12.8912 16.9841 13.3599 16.5154 13.3599 15.9372C13.3599 15.3591 12.8912 14.8904 12.313 14.8904H11.2661C10.1098 14.8904 9.17236 13.953 9.17236 12.7966C9.17236 11.6403 10.1098 10.7029 11.2661 10.7029H13.3599C13.938 10.7029 14.4067 10.2342 14.4067 9.65599C14.4067 9.61334 14.4042 9.57129 14.3992 9.52998ZM17.0735 2.17339L17.0765 2.17871C17.0753 2.17646 17.074 2.17421 17.0735 2.17339C17.0735 2.17335 17.0732 2.17284 17.0735 2.17339Z" fill="#F7510B"/>
</svg>
