<svg width="52" height="52" viewBox="0 0 52 52" fill="none" xmlns="http://www.w3.org/2000/svg">
<path fill-rule="evenodd" clip-rule="evenodd" d="M0.965537 47.3307C0.136339 49.7779 2.45217 52.1236 4.90973 51.3258L40.0602 39.9153C40.6101 39.7368 40.9112 39.1462 40.7327 38.5963C40.5542 38.0464 39.9637 37.7453 39.4137 37.9238L4.26327 49.3343C3.44408 49.6003 2.67214 48.8184 2.94854 48.0027L15.7035 10.3599C15.9526 9.62495 16.8866 9.40689 17.4353 9.95558L43.1826 35.7029C44.4091 36.9294 46.3976 36.9294 47.6241 35.7029L50.215 33.112C51.4415 31.8855 51.4415 29.897 50.215 28.6705L22.9033 1.35879C22.0427 0.498241 20.6475 0.498241 19.787 1.35879L16.9036 4.24214C16.4948 4.65097 16.4948 5.31382 16.9036 5.72265C17.3124 6.13148 17.9753 6.13148 18.3841 5.72265L21.2675 2.8393C21.3104 2.79641 21.3799 2.79641 21.4228 2.8393L48.7345 30.151C49.1433 30.5598 49.1433 31.2227 48.7345 31.6315L46.1436 34.2224C45.7348 34.6312 45.0719 34.6312 44.6631 34.2224L18.9158 8.47508C17.2697 6.829 14.4676 7.48319 13.7205 9.68794L0.965537 47.3307ZM13.2024 36.073C14.02 35.2553 15.3457 35.2553 16.1634 36.073C16.981 36.8907 16.981 38.2163 16.1634 39.034C15.3457 39.8517 14.02 39.8517 13.2024 39.034C12.3847 38.2163 12.3847 36.8907 13.2024 36.073ZM26.5269 31.6315C27.3446 30.8138 28.6702 30.8138 29.4879 31.6315C30.3056 32.4491 30.3056 33.7748 29.4879 34.5925C28.6702 35.4101 27.3446 35.4101 26.5269 34.5925C25.7092 33.7748 25.7092 32.4491 26.5269 31.6315ZM17.6439 22.7485C18.4615 21.9308 19.7872 21.9308 20.6049 22.7485C21.4225 23.5661 21.4225 24.8918 20.6049 25.7095C19.7872 26.5271 18.4615 26.5271 17.6439 25.7095C16.8262 24.8918 16.8262 23.5661 17.6439 22.7485ZM16.1634 21.2679C17.7987 19.6326 20.4501 19.6326 22.0854 21.2679C23.7207 22.9033 23.7207 25.5546 22.0854 27.19C20.4501 28.8253 17.7987 28.8253 16.1634 27.19C14.528 25.5546 14.528 22.9033 16.1634 21.2679ZM30.9684 30.151C29.3331 28.5157 26.6817 28.5157 25.0464 30.151C23.4111 31.7863 23.4111 34.4377 25.0464 36.073C26.6817 37.7083 29.3331 37.7083 30.9684 36.073C32.6037 34.4377 32.6037 31.7863 30.9684 30.151ZM17.6439 34.5925C16.0085 32.9572 13.3572 32.9572 11.7218 34.5925C10.0865 36.2278 10.0865 38.8792 11.7218 40.5145C13.3572 42.1498 16.0085 42.1498 17.6439 40.5145C19.2792 38.8792 19.2792 36.2278 17.6439 34.5925Z" fill="#F7510B"/>
</svg>
