<svg width="35" height="56" viewBox="0 0 35 56" fill="none" xmlns="http://www.w3.org/2000/svg">
<path fill-rule="evenodd" clip-rule="evenodd" d="M22.188 34.4375C22.188 36.1979 20.7609 37.625 19.0005 37.625C17.2401 37.625 15.813 36.1979 15.813 34.4375C15.813 32.6771 17.2401 31.25 19.0005 31.25C20.7609 31.25 22.188 32.6771 22.188 34.4375ZM20.063 34.4375C20.063 35.0243 19.5873 35.5 19.0005 35.5C18.4137 35.5 17.938 35.0243 17.938 34.4375C17.938 33.8507 18.4137 33.375 19.0005 33.375C19.5873 33.375 20.063 33.8507 20.063 34.4375Z" fill="#F7510B"/>
<path fill-rule="evenodd" clip-rule="evenodd" d="M14.7505 40.8125C14.7505 42.5729 13.3234 44 11.563 44C9.80258 44 8.37549 42.5729 8.37549 40.8125C8.37549 39.0521 9.80258 37.625 11.563 37.625C13.3234 37.625 14.7505 39.0521 14.7505 40.8125ZM12.6255 40.8125C12.6255 41.3993 12.1498 41.875 11.563 41.875C10.9762 41.875 10.5005 41.3993 10.5005 40.8125C10.5005 40.2257 10.9762 39.75 11.563 39.75C12.1498 39.75 12.6255 40.2257 12.6255 40.8125Z" fill="#F7510B"/>
<path fill-rule="evenodd" clip-rule="evenodd" d="M19.0005 50.375C20.7609 50.375 22.188 48.9479 22.188 47.1875C22.188 45.4271 20.7609 44 19.0005 44C17.2401 44 15.813 45.4271 15.813 47.1875C15.813 48.9479 17.2401 50.375 19.0005 50.375ZM20.063 47.1875C20.063 47.7743 19.5873 48.25 19.0005 48.25C18.4137 48.25 17.938 47.7743 17.938 47.1875C17.938 46.6007 18.4137 46.125 19.0005 46.125C19.5873 46.125 20.063 46.6007 20.063 47.1875Z" fill="#F7510B"/>
<path fill-rule="evenodd" clip-rule="evenodd" d="M29.6255 40.8125C29.6255 42.5729 28.1984 44 26.438 44C24.6776 44 23.2505 42.5729 23.2505 40.8125C23.2505 39.0521 24.6776 37.625 26.438 37.625C28.1984 37.625 29.6255 39.0521 29.6255 40.8125ZM27.5005 40.8125C27.5005 41.3993 27.0248 41.875 26.438 41.875C25.8512 41.875 25.3755 41.3993 25.3755 40.8125C25.3755 40.2257 25.8512 39.75 26.438 39.75C27.0248 39.75 27.5005 40.2257 27.5005 40.8125Z" fill="#F7510B"/>
<path fill-rule="evenodd" clip-rule="evenodd" d="M4.12549 0.4375C3.53869 0.4375 3.06299 0.913197 3.06299 1.5C3.06299 2.0868 3.53869 2.5625 4.12549 2.5625H12.6255C14.3859 2.5625 15.813 3.98959 15.813 5.75V13.1875H4.12549C2.36508 13.1875 0.937988 14.6146 0.937988 16.375V18.5C0.937988 19.8988 1.83904 21.0872 3.09238 21.5164L4.13871 52.6072C4.19652 54.3249 5.60573 55.6875 7.32441 55.6875H30.6766C32.3952 55.6875 33.8045 54.3249 33.8623 52.6072L34.938 20.6429V16.375C34.938 14.6146 33.5109 13.1875 31.7505 13.1875H17.938V5.75C17.938 2.81599 15.5595 0.4375 12.6255 0.4375H4.12549ZM4.12549 15.3125H31.7505C32.3373 15.3125 32.813 15.7882 32.813 16.375L32.813 20.6071L32.6811 24.5254C32.3632 24.4615 32.0054 24.4005 31.6166 24.352C30.1035 24.1628 28.0439 24.1508 26.0434 24.951C22.755 26.2663 19.4959 26.2663 16.2076 24.951C12.9231 23.6372 8.82083 23.4605 5.31633 24.4208L5.22435 21.6875H26.438C27.0248 21.6875 27.5005 21.2118 27.5005 20.625C27.5005 20.0382 27.0248 19.5625 26.438 19.5625H4.12549C3.53869 19.5625 3.06299 19.0868 3.06299 18.5V16.375C3.06299 15.7882 3.53869 15.3125 4.12549 15.3125ZM31.3531 26.4605C31.8361 26.5209 32.2632 26.6037 32.6085 26.6836L31.7385 52.5357C31.7192 53.1083 31.2495 53.5625 30.6766 53.5625H7.32441C6.75152 53.5625 6.28178 53.1083 6.26251 52.5357L5.39014 26.6138C8.54415 25.6184 12.4128 25.7218 15.4184 26.924C19.2134 28.442 23.0376 28.442 26.8326 26.924C28.3738 26.3075 30.0329 26.2955 31.3531 26.4605Z" fill="#F7510B"/>
</svg>
