<svg width="52" height="52" viewBox="0 0 52 52" fill="none" xmlns="http://www.w3.org/2000/svg">
<path d="M20.5408 40.2983L23.6608 49.0269" stroke="#F7510B" stroke-width="2.5" stroke-linecap="round" stroke-linejoin="round"/>
<path d="M7.35474 3.60205L8.61759 7.09348" stroke="#F7510B" stroke-width="2.5" stroke-linecap="round" stroke-linejoin="round"/>
<path d="M20.5408 40.2998L14.0408 38.7026" stroke="#F7510B" stroke-width="2.5" stroke-linecap="round" stroke-linejoin="round"/>
<path d="M20.5408 40.2993L24.5151 34.9136" stroke="#F7510B" stroke-width="2.5" stroke-linecap="round" stroke-linejoin="round"/>
<path d="M17.3828 31.5698L10.8828 29.9355" stroke="#F7510B" stroke-width="2.5" stroke-linecap="round" stroke-linejoin="round"/>
<path d="M17.3828 31.5708L21.3942 26.1851" stroke="#F7510B" stroke-width="2.5" stroke-linecap="round" stroke-linejoin="round"/>
<path d="M14.2634 22.8056L7.76343 21.2085" stroke="#F7510B" stroke-width="2.5" stroke-linecap="round" stroke-linejoin="round"/>
<path d="M14.2634 22.8041L18.2377 17.4556" stroke="#F7510B" stroke-width="2.5" stroke-linecap="round" stroke-linejoin="round"/>
<path d="M11.1064 14.0761L4.60645 12.479" stroke="#F7510B" stroke-width="2.5" stroke-linecap="round" stroke-linejoin="round"/>
<path d="M11.1064 14.0766L15.1179 8.69092" stroke="#F7510B" stroke-width="2.5" stroke-linecap="round" stroke-linejoin="round"/>
<path d="M35.3234 38.0713L33.2434 46.4284" stroke="#F7510B" stroke-width="2.5" stroke-linecap="round" stroke-linejoin="round"/>
<path d="M44.0144 2.9707L43.1973 6.31356" stroke="#F7510B" stroke-width="2.5" stroke-linecap="round" stroke-linejoin="round"/>
<path d="M35.3229 38.0706L31.1257 33.4648" stroke="#F7510B" stroke-width="2.5" stroke-linecap="round" stroke-linejoin="round"/>
<path d="M35.3225 38.0707L41.1539 35.9907" stroke="#F7510B" stroke-width="2.5" stroke-linecap="round" stroke-linejoin="round"/>
<path d="M37.3661 29.7136L33.2061 25.1079" stroke="#F7510B" stroke-width="2.5" stroke-linecap="round" stroke-linejoin="round"/>
<path d="M37.3652 29.7133L43.2338 27.5962" stroke="#F7510B" stroke-width="2.5" stroke-linecap="round" stroke-linejoin="round"/>
<path d="M39.4461 21.3562L35.2861 16.7505" stroke="#F7510B" stroke-width="2.5" stroke-linecap="round" stroke-linejoin="round"/>
<path d="M39.4456 21.3559L45.3141 19.2388" stroke="#F7510B" stroke-width="2.5" stroke-linecap="round" stroke-linejoin="round"/>
<path d="M41.5252 12.9993L37.3652 8.39355" stroke="#F7510B" stroke-width="2.5" stroke-linecap="round" stroke-linejoin="round"/>
<path d="M41.5261 12.999L47.3947 10.8818" stroke="#F7510B" stroke-width="2.5" stroke-linecap="round" stroke-linejoin="round"/>
</svg>
